%TF.GenerationSoftware,KiCad,Pcbnew,9.0.7*%
%TF.CreationDate,2026-02-22T19:28:03-05:00*%
%TF.ProjectId,ovencontroller,6f76656e-636f-46e7-9472-6f6c6c65722e,rev?*%
%TF.SameCoordinates,Original*%
%TF.FileFunction,Copper,L1,Top*%
%TF.FilePolarity,Positive*%
%FSLAX46Y46*%
G04 Gerber Fmt 4.6, Leading zero omitted, Abs format (unit mm)*
G04 Created by KiCad (PCBNEW 9.0.7) date 2026-02-22 19:28:03*
%MOMM*%
%LPD*%
G01*
G04 APERTURE LIST*
G04 Aperture macros list*
%AMRoundRect*
0 Rectangle with rounded corners*
0 $1 Rounding radius*
0 $2 $3 $4 $5 $6 $7 $8 $9 X,Y pos of 4 corners*
0 Add a 4 corners polygon primitive as box body*
4,1,4,$2,$3,$4,$5,$6,$7,$8,$9,$2,$3,0*
0 Add four circle primitives for the rounded corners*
1,1,$1+$1,$2,$3*
1,1,$1+$1,$4,$5*
1,1,$1+$1,$6,$7*
1,1,$1+$1,$8,$9*
0 Add four rect primitives between the rounded corners*
20,1,$1+$1,$2,$3,$4,$5,0*
20,1,$1+$1,$4,$5,$6,$7,0*
20,1,$1+$1,$6,$7,$8,$9,0*
20,1,$1+$1,$8,$9,$2,$3,0*%
G04 Aperture macros list end*
%TA.AperFunction,ComponentPad*%
%ADD10R,1.600000X1.600000*%
%TD*%
%TA.AperFunction,ComponentPad*%
%ADD11O,1.600000X1.600000*%
%TD*%
%TA.AperFunction,ComponentPad*%
%ADD12C,2.000000*%
%TD*%
%TA.AperFunction,ComponentPad*%
%ADD13C,1.905000*%
%TD*%
%TA.AperFunction,ComponentPad*%
%ADD14C,1.600000*%
%TD*%
%TA.AperFunction,ComponentPad*%
%ADD15RoundRect,0.250000X-0.600000X-0.750000X0.600000X-0.750000X0.600000X0.750000X-0.600000X0.750000X0*%
%TD*%
%TA.AperFunction,ComponentPad*%
%ADD16O,1.700000X2.000000*%
%TD*%
%TA.AperFunction,ComponentPad*%
%ADD17R,1.800000X1.800000*%
%TD*%
%TA.AperFunction,ComponentPad*%
%ADD18C,1.800000*%
%TD*%
%TA.AperFunction,Conductor*%
%ADD19C,0.200000*%
%TD*%
G04 APERTURE END LIST*
D10*
%TO.P,A1,1,D1/TX*%
%TO.N,unconnected-(A1-D1{slash}TX-Pad1)*%
X72240000Y-80500000D03*
D11*
%TO.P,A1,2,D0/RX*%
%TO.N,unconnected-(A1-D0{slash}RX-Pad2)*%
X72240000Y-77960000D03*
%TO.P,A1,3,~{RESET}*%
%TO.N,unconnected-(A1-~{RESET}-Pad3)*%
X72240000Y-75420000D03*
%TO.P,A1,4,GND*%
%TO.N,Net-(D1-K)*%
X72240000Y-72880000D03*
%TO.P,A1,5,D2*%
%TO.N,unconnected-(A1-D2-Pad5)*%
X72240000Y-70340000D03*
%TO.P,A1,6,D3*%
%TO.N,unconnected-(A1-D3-Pad6)*%
X72240000Y-67800000D03*
%TO.P,A1,7,D4*%
%TO.N,Net-(A1-D4)*%
X72240000Y-65260000D03*
%TO.P,A1,8,D5*%
%TO.N,Net-(A1-D5)*%
X72240000Y-62720000D03*
%TO.P,A1,9,D6*%
%TO.N,unconnected-(A1-D6-Pad9)*%
X72240000Y-60180000D03*
%TO.P,A1,10,D7*%
%TO.N,unconnected-(A1-D7-Pad10)*%
X72240000Y-57640000D03*
%TO.P,A1,11,D8*%
%TO.N,unconnected-(A1-D8-Pad11)*%
X72240000Y-55100000D03*
%TO.P,A1,12,D9*%
%TO.N,unconnected-(A1-D9-Pad12)*%
X72240000Y-52560000D03*
%TO.P,A1,13,D10*%
%TO.N,Net-(A1-D10)*%
X72240000Y-50020000D03*
%TO.P,A1,14,D11*%
%TO.N,Net-(A1-D11)*%
X72240000Y-47480000D03*
%TO.P,A1,15,D12*%
%TO.N,Net-(A1-D12)*%
X72240000Y-44940000D03*
%TO.P,A1,16,D13*%
%TO.N,Net-(A1-D13)*%
X57000000Y-44940000D03*
%TO.P,A1,17,3V3*%
%TO.N,unconnected-(A1-3V3-Pad17)*%
X57000000Y-47480000D03*
%TO.P,A1,18,AREF*%
%TO.N,unconnected-(A1-AREF-Pad18)*%
X57000000Y-50020000D03*
%TO.P,A1,19,A0*%
%TO.N,Net-(A1-A0)*%
X57000000Y-52560000D03*
%TO.P,A1,20,A1*%
%TO.N,unconnected-(A1-A1-Pad20)*%
X57000000Y-55100000D03*
%TO.P,A1,21,A2*%
%TO.N,Net-(A1-A2)*%
X57000000Y-57640000D03*
%TO.P,A1,22,A3*%
%TO.N,unconnected-(A1-A3-Pad22)*%
X57000000Y-60180000D03*
%TO.P,A1,23,A4*%
%TO.N,unconnected-(A1-A4-Pad23)*%
X57000000Y-62720000D03*
%TO.P,A1,24,A5*%
%TO.N,unconnected-(A1-A5-Pad24)*%
X57000000Y-65260000D03*
%TO.P,A1,25,A6*%
%TO.N,unconnected-(A1-A6-Pad25)*%
X57000000Y-67800000D03*
%TO.P,A1,26,A7*%
%TO.N,unconnected-(A1-A7-Pad26)*%
X57000000Y-70340000D03*
%TO.P,A1,27,+5V*%
%TO.N,+5V*%
X57000000Y-72880000D03*
%TO.P,A1,28,~{RESET}*%
%TO.N,unconnected-(A1-~{RESET}-Pad28)*%
X57000000Y-75420000D03*
%TO.P,A1,29,GND*%
%TO.N,unconnected-(A1-GND-Pad29)*%
X57000000Y-77960000D03*
%TO.P,A1,30,VIN*%
%TO.N,unconnected-(A1-VIN-Pad30)*%
X57000000Y-80500000D03*
%TD*%
D12*
%TO.P,M1,1*%
%TO.N,Net-(A2-1A)*%
X42000000Y-65000000D03*
%TO.P,M1,2,-*%
%TO.N,Net-(A2-1B)*%
X45000000Y-65000000D03*
%TO.P,M1,3*%
%TO.N,Net-(A2-2A)*%
X48000000Y-65000000D03*
%TO.P,M1,4*%
%TO.N,Net-(A2-2B)*%
X51000000Y-65000000D03*
%TD*%
D13*
%TO.P,J1,1,Pin_1*%
%TO.N,+5V*%
X28000000Y-83000000D03*
%TO.P,J1,2,Pin_2*%
%TO.N,Net-(A1-D12)*%
X28000000Y-80000000D03*
%TO.P,J1,3,Pin_3*%
%TO.N,Net-(A1-D10)*%
X28000000Y-77000000D03*
%TO.P,J1,4,Pin_4*%
%TO.N,Net-(A1-D11)*%
X28000000Y-74000000D03*
%TO.P,J1,5,Pin_5*%
%TO.N,Net-(A1-D13)*%
X28000000Y-71000000D03*
%TO.P,J1,6,Pin_6*%
%TO.N,Net-(D1-K)*%
X28000000Y-68000000D03*
%TD*%
D14*
%TO.P,R2,1*%
%TO.N,Net-(A1-A0)*%
X50690000Y-91500000D03*
%TO.P,R2,2*%
%TO.N,Net-(D2-A)*%
X58310000Y-91500000D03*
%TD*%
D10*
%TO.P,A2,1,GND*%
%TO.N,unconnected-(A2-GND-Pad1)*%
X52890000Y-70660000D03*
D11*
%TO.P,A2,2,VDD*%
%TO.N,unconnected-(A2-VDD-Pad2)*%
X50350000Y-70660000D03*
%TO.P,A2,3,1B*%
%TO.N,Net-(A2-1B)*%
X47810000Y-70660000D03*
%TO.P,A2,4,1A*%
%TO.N,Net-(A2-1A)*%
X45270000Y-70660000D03*
%TO.P,A2,5,2A*%
%TO.N,Net-(A2-2A)*%
X42730000Y-70660000D03*
%TO.P,A2,6,2B*%
%TO.N,Net-(A2-2B)*%
X40190000Y-70660000D03*
%TO.P,A2,7,GND*%
%TO.N,Net-(D1-K)*%
X37650000Y-70660000D03*
%TO.P,A2,8,VMOT*%
%TO.N,+5V*%
X35110000Y-70660000D03*
%TO.P,A2,9,~{ENABLE}*%
%TO.N,unconnected-(A2-~{ENABLE}-Pad9)*%
X35110000Y-83360000D03*
%TO.P,A2,10,MS1*%
%TO.N,unconnected-(A2-MS1-Pad10)*%
X37650000Y-83360000D03*
%TO.P,A2,11,MS2*%
%TO.N,unconnected-(A2-MS2-Pad11)*%
X40190000Y-83360000D03*
%TO.P,A2,12,MS3*%
%TO.N,unconnected-(A2-MS3-Pad12)*%
X42730000Y-83360000D03*
%TO.P,A2,13,~{RESET}*%
%TO.N,unconnected-(A2-~{RESET}-Pad13)*%
X45270000Y-83360000D03*
%TO.P,A2,14,~{SLEEP}*%
%TO.N,unconnected-(A2-~{SLEEP}-Pad14)*%
X47810000Y-83360000D03*
%TO.P,A2,15,STEP*%
%TO.N,Net-(A1-D4)*%
X50350000Y-83360000D03*
%TO.P,A2,16,DIR*%
%TO.N,Net-(A1-D5)*%
X52890000Y-83360000D03*
%TD*%
D14*
%TO.P,R3,1*%
%TO.N,+5V*%
X66550000Y-93350000D03*
%TO.P,R3,2*%
%TO.N,Net-(A1-A2)*%
X74170000Y-93350000D03*
%TD*%
D15*
%TO.P,TH1,1*%
%TO.N,+5V*%
X68500000Y-98000000D03*
D16*
%TO.P,TH1,2*%
%TO.N,Net-(D1-K)*%
X71000000Y-98000000D03*
%TD*%
D17*
%TO.P,D2,1,K*%
%TO.N,Net-(D1-K)*%
X52960000Y-98000000D03*
D18*
%TO.P,D2,2,A*%
%TO.N,Net-(D2-A)*%
X55500000Y-98000000D03*
%TD*%
D17*
%TO.P,D1,1,K*%
%TO.N,Net-(D1-K)*%
X37230000Y-98500000D03*
D18*
%TO.P,D1,2,A*%
%TO.N,Net-(D1-A)*%
X39770000Y-98500000D03*
%TD*%
D14*
%TO.P,C1,1*%
%TO.N,+5V*%
X35250000Y-65000000D03*
%TO.P,C1,2*%
%TO.N,Net-(D1-K)*%
X37750000Y-65000000D03*
%TD*%
%TO.P,R1,1*%
%TO.N,Net-(A1-A0)*%
X34690000Y-91500000D03*
%TO.P,R1,2*%
%TO.N,Net-(D1-A)*%
X42310000Y-91500000D03*
%TD*%
D19*
%TO.N,*%
X73341000Y-73336050D02*
X73341000Y-71441000D01*
X56752950Y-91500000D02*
X70292950Y-77960000D01*
X72696050Y-73981000D02*
X73341000Y-73336050D01*
X55703950Y-90399000D02*
X72121950Y-73981000D01*
X35791000Y-90399000D02*
X55703950Y-90399000D01*
X72121950Y-73981000D02*
X72696050Y-73981000D01*
X34690000Y-91500000D02*
X35791000Y-90399000D01*
X50690000Y-91500000D02*
X56752950Y-91500000D01*
X73341000Y-71441000D02*
X72240000Y-70340000D01*
X70292950Y-77960000D02*
X72240000Y-77960000D01*
%TO.N,Net-(D1-K)*%
X52433950Y-84461000D02*
X60659000Y-84461000D01*
X51259000Y-99701000D02*
X52960000Y-98000000D01*
X38431000Y-99701000D02*
X51259000Y-99701000D01*
X34793950Y-63899000D02*
X34009000Y-64683950D01*
X51451000Y-83816050D02*
X52095950Y-84461000D01*
X60659000Y-84461000D02*
X72240000Y-72880000D01*
X28000000Y-68000000D02*
X36922000Y-76922000D01*
X51789000Y-82903950D02*
X51789000Y-83816050D01*
X36549000Y-71761000D02*
X37650000Y-70660000D01*
X37650000Y-70660000D02*
X40990000Y-74000000D01*
X27480783Y-81746500D02*
X50293550Y-81746500D01*
X26746500Y-82480783D02*
X27480783Y-81746500D01*
X52095950Y-84461000D02*
X60659000Y-84461000D01*
X37750000Y-65000000D02*
X36649000Y-63899000D01*
X36097800Y-100904000D02*
X26746500Y-91552700D01*
X68096000Y-100904000D02*
X36097800Y-100904000D01*
X45807050Y-76922000D02*
X51789000Y-82903950D01*
X34009000Y-64683950D02*
X34009000Y-71116050D01*
X71120000Y-74000000D02*
X72240000Y-72880000D01*
X51451000Y-82903950D02*
X51451000Y-83816050D01*
X50293550Y-81746500D02*
X51451000Y-82903950D01*
X37230000Y-98500000D02*
X38431000Y-99701000D01*
X51789000Y-83816050D02*
X52433950Y-84461000D01*
X36922000Y-76922000D02*
X45807050Y-76922000D01*
X34653950Y-71761000D02*
X36549000Y-71761000D01*
X71000000Y-98000000D02*
X68096000Y-100904000D01*
X36649000Y-63899000D02*
X34793950Y-63899000D01*
X40990000Y-74000000D02*
X71120000Y-74000000D01*
X34009000Y-71116050D02*
X34653950Y-71761000D01*
X26746500Y-91552700D02*
X26746500Y-82480783D01*
%TO.N,+5V*%
X38751000Y-71116050D02*
X40514950Y-72880000D01*
X68500000Y-98000000D02*
X68500000Y-97500000D01*
X38751000Y-70203950D02*
X38751000Y-71116050D01*
X28000000Y-83000000D02*
X28000000Y-92239100D01*
X75500000Y-72042950D02*
X72696050Y-69239000D01*
X68500000Y-97500000D02*
X66550000Y-95550000D01*
X38106050Y-69559000D02*
X38751000Y-70203950D01*
X75500000Y-81602671D02*
X75500000Y-72042950D01*
X36263900Y-100503000D02*
X56599671Y-100503000D01*
X28000000Y-92239100D02*
X36263900Y-100503000D01*
X72696050Y-69239000D02*
X60641000Y-69239000D01*
X35110000Y-70660000D02*
X36211000Y-69559000D01*
X60641000Y-69239000D02*
X57000000Y-72880000D01*
X36211000Y-69559000D02*
X38106050Y-69559000D01*
X40514950Y-72880000D02*
X57000000Y-72880000D01*
X73742000Y-70284950D02*
X72696050Y-69239000D01*
X35250000Y-70520000D02*
X35110000Y-70660000D01*
X56599671Y-100503000D02*
X75500000Y-81602671D01*
X66550000Y-95550000D02*
X66550000Y-93350000D01*
X35250000Y-65000000D02*
X35250000Y-70520000D01*
X66550000Y-93350000D02*
X73742000Y-86158000D01*
X73742000Y-86158000D02*
X73742000Y-70284950D01*
%TO.N,Net-(A1-D4)*%
X33608000Y-64517850D02*
X33608000Y-71282150D01*
X38846850Y-76521000D02*
X46051000Y-76521000D01*
X36430000Y-100102000D02*
X33589000Y-97261000D01*
X40171950Y-84461000D02*
X49249000Y-84461000D01*
X71000000Y-66500000D02*
X54339892Y-66500000D01*
X33589000Y-97261000D02*
X33589000Y-91043950D01*
X72240000Y-80500000D02*
X72240000Y-84295571D01*
X72240000Y-65260000D02*
X71000000Y-66500000D01*
X33589000Y-91043950D02*
X40171950Y-84461000D01*
X34627850Y-63498000D02*
X33608000Y-64517850D01*
X72240000Y-84295571D02*
X56433571Y-100102000D01*
X49249000Y-84461000D02*
X50350000Y-83360000D01*
X46051000Y-76521000D02*
X52890000Y-83360000D01*
X51337892Y-63498000D02*
X34627850Y-63498000D01*
X54339892Y-66500000D02*
X51337892Y-63498000D01*
X56433571Y-100102000D02*
X36430000Y-100102000D01*
X33608000Y-71282150D02*
X38846850Y-76521000D01*
%TO.N,Net-(A1-D12)*%
X28000000Y-80000000D02*
X25543500Y-77543500D01*
X25543500Y-77543500D02*
X25543500Y-66982483D01*
X70337000Y-43037000D02*
X72240000Y-44940000D01*
X49488983Y-43037000D02*
X70337000Y-43037000D01*
X25543500Y-66982483D02*
X49488983Y-43037000D01*
%TO.N,Net-(A1-D10)*%
X49655083Y-43438000D02*
X68842950Y-43438000D01*
X25944500Y-74944500D02*
X25944500Y-67148583D01*
X73500000Y-48760000D02*
X72240000Y-50020000D01*
X71783950Y-46379000D02*
X72696050Y-46379000D01*
X72696050Y-46379000D02*
X73500000Y-47182950D01*
X73500000Y-47182950D02*
X73500000Y-48760000D01*
X25944500Y-67148583D02*
X49655083Y-43438000D01*
X68842950Y-43438000D02*
X71783950Y-46379000D01*
X28000000Y-77000000D02*
X25944500Y-74944500D01*
%TO.N,Net-(A1-D13)*%
X26746500Y-69746500D02*
X26746500Y-67480783D01*
X26746500Y-67480783D02*
X49287283Y-44940000D01*
X49287283Y-44940000D02*
X57000000Y-44940000D01*
X28000000Y-71000000D02*
X26746500Y-69746500D01*
%TO.N,Net-(A1-D11)*%
X28000000Y-74000000D02*
X26345500Y-72345500D01*
X26345500Y-72345500D02*
X26345500Y-67314683D01*
X49821183Y-43839000D02*
X68599000Y-43839000D01*
X26345500Y-67314683D02*
X49821183Y-43839000D01*
X68599000Y-43839000D02*
X72240000Y-47480000D01*
%TO.N,Net-(A1-A2)*%
X75901000Y-91619000D02*
X75901000Y-67363950D01*
X75901000Y-67363950D02*
X72537050Y-64000000D01*
X72537050Y-64000000D02*
X63360000Y-64000000D01*
X63360000Y-64000000D02*
X57000000Y-57640000D01*
X74170000Y-93350000D02*
X75901000Y-91619000D01*
%TO.N,Net-(A2-1B)*%
X47810000Y-67810000D02*
X47810000Y-70660000D01*
X45000000Y-65000000D02*
X47810000Y-67810000D01*
%TO.N,Net-(A2-1A)*%
X42000000Y-65000000D02*
X45270000Y-68270000D01*
X45270000Y-68270000D02*
X45270000Y-70660000D01*
%TO.N,Net-(A2-2A)*%
X43831000Y-71761000D02*
X42730000Y-70660000D01*
X48266050Y-71761000D02*
X43831000Y-71761000D01*
X49000000Y-66000000D02*
X49000000Y-71027050D01*
X49000000Y-71027050D02*
X48266050Y-71761000D01*
X48000000Y-65000000D02*
X49000000Y-66000000D01*
%TO.N,Net-(A2-2B)*%
X51451000Y-71116050D02*
X50088050Y-72479000D01*
X42009000Y-72479000D02*
X40190000Y-70660000D01*
X50088050Y-72479000D02*
X42009000Y-72479000D01*
X51000000Y-65000000D02*
X51451000Y-65451000D01*
X51451000Y-65451000D02*
X51451000Y-71116050D01*
%TO.N,Net-(D1-A)*%
X42310000Y-95960000D02*
X42310000Y-91500000D01*
X39770000Y-98500000D02*
X42310000Y-95960000D01*
%TO.N,Net-(D2-A)*%
X58310000Y-95190000D02*
X58310000Y-91500000D01*
X55500000Y-98000000D02*
X58310000Y-95190000D01*
%TD*%
M02*
