M48
; DRILL file {KiCad 9.0.7} date 2026-02-22T19:28:07-0500
; FORMAT={-:-/ absolute / metric / decimal}
; #@! TF.CreationDate,2026-02-22T19:28:07-05:00
; #@! TF.GenerationSoftware,Kicad,Pcbnew,9.0.7
; #@! TF.FileFunction,Plated,1,2,PTH
FMAT,2
METRIC
; #@! TA.AperFunction,Plated,PTH,ComponentDrill
T1C0.800
; #@! TA.AperFunction,Plated,PTH,ComponentDrill
T2C0.900
; #@! TA.AperFunction,Plated,PTH,ComponentDrill
T3C1.000
; #@! TA.AperFunction,Plated,PTH,ComponentDrill
T4C1.500
%
G90
G05
T1
X34.69Y-91.5
X35.11Y-70.66
X35.11Y-83.36
X35.25Y-65.0
X37.65Y-70.66
X37.65Y-83.36
X37.75Y-65.0
X40.19Y-70.66
X40.19Y-83.36
X42.31Y-91.5
X42.73Y-70.66
X42.73Y-83.36
X45.27Y-70.66
X45.27Y-83.36
X47.81Y-70.66
X47.81Y-83.36
X50.35Y-70.66
X50.35Y-83.36
X50.69Y-91.5
X52.89Y-70.66
X52.89Y-83.36
X58.31Y-91.5
X66.55Y-93.35
X74.17Y-93.35
T2
X37.23Y-98.5
X39.77Y-98.5
X52.96Y-98.0
X55.5Y-98.0
T3
X57.0Y-44.94
X57.0Y-47.48
X57.0Y-50.02
X57.0Y-52.56
X57.0Y-55.1
X57.0Y-57.64
X57.0Y-60.18
X57.0Y-62.72
X57.0Y-65.26
X57.0Y-67.8
X57.0Y-70.34
X57.0Y-72.88
X57.0Y-75.42
X57.0Y-77.96
X57.0Y-80.5
X68.5Y-98.0
X71.0Y-98.0
X72.24Y-44.94
X72.24Y-47.48
X72.24Y-50.02
X72.24Y-52.56
X72.24Y-55.1
X72.24Y-57.64
X72.24Y-60.18
X72.24Y-62.72
X72.24Y-65.26
X72.24Y-67.8
X72.24Y-70.34
X72.24Y-72.88
X72.24Y-75.42
X72.24Y-77.96
X72.24Y-80.5
T4
X28.0Y-68.0
X28.0Y-71.0
X28.0Y-74.0
X28.0Y-77.0
X28.0Y-80.0
X28.0Y-83.0
X42.0Y-65.0
X45.0Y-65.0
X48.0Y-65.0
X51.0Y-65.0
M30
