ISO-10303-21;
HEADER;
FILE_DESCRIPTION(('FreeCAD Model'),'2;1');
FILE_NAME('Open CASCADE Shape Model','2025-04-02T10:57:20',(''),(''),
  'Open CASCADE STEP processor 7.8','FreeCAD','Unknown');
FILE_SCHEMA(('AUTOMOTIVE_DESIGN { 1 0 10303 214 1 1 1 1 }'));
ENDSEC;
DATA;
#1 = APPLICATION_PROTOCOL_DEFINITION('international standard',
  'automotive_design',2000,#2);
#2 = APPLICATION_CONTEXT(
  'core data for automotive mechanical design processes');
#3 = SHAPE_DEFINITION_REPRESENTATION(#4,#10);
#4 = PRODUCT_DEFINITION_SHAPE('','',#5);
#5 = PRODUCT_DEFINITION('design','',#6,#9);
#6 = PRODUCT_DEFINITION_FORMATION('','',#7);
#7 = PRODUCT('_5602R0FT','_5602R0FT','',(#8));
#8 = PRODUCT_CONTEXT('',#2,'mechanical');
#9 = PRODUCT_DEFINITION_CONTEXT('part definition',#2,'design');
#10 = SHAPE_REPRESENTATION('',(#11,#15,#19,#23,#27),#31);
#11 = AXIS2_PLACEMENT_3D('',#12,#13,#14);
#12 = CARTESIAN_POINT('',(0.,0.,0.));
#13 = DIRECTION('',(0.,0.,1.));
#14 = DIRECTION('',(1.,0.,-0.));
#15 = AXIS2_PLACEMENT_3D('',#16,#17,#18);
#16 = CARTESIAN_POINT('',(0.,0.,0.));
#17 = DIRECTION('',(0.,0.,1.));
#18 = DIRECTION('',(1.,0.,0.));
#19 = AXIS2_PLACEMENT_3D('',#20,#21,#22);
#20 = CARTESIAN_POINT('',(0.,0.,0.));
#21 = DIRECTION('',(0.,0.,1.));
#22 = DIRECTION('',(1.,0.,0.));
#23 = AXIS2_PLACEMENT_3D('',#24,#25,#26);
#24 = CARTESIAN_POINT('',(0.,0.,0.));
#25 = DIRECTION('',(0.,0.,1.));
#26 = DIRECTION('',(1.,0.,0.));
#27 = AXIS2_PLACEMENT_3D('',#28,#29,#30);
#28 = CARTESIAN_POINT('',(0.,0.,0.));
#29 = DIRECTION('',(0.,0.,1.));
#30 = DIRECTION('',(1.,0.,0.));
#31 = ( GEOMETRIC_REPRESENTATION_CONTEXT(3) 
GLOBAL_UNCERTAINTY_ASSIGNED_CONTEXT((#35)) GLOBAL_UNIT_ASSIGNED_CONTEXT(
(#32,#33,#34)) REPRESENTATION_CONTEXT('Context #1',
  '3D Context with UNIT and UNCERTAINTY') );
#32 = ( LENGTH_UNIT() NAMED_UNIT(*) SI_UNIT(.MILLI.,.METRE.) );
#33 = ( NAMED_UNIT(*) PLANE_ANGLE_UNIT() SI_UNIT($,.RADIAN.) );
#34 = ( NAMED_UNIT(*) SI_UNIT($,.STERADIAN.) SOLID_ANGLE_UNIT() );
#35 = UNCERTAINTY_MEASURE_WITH_UNIT(LENGTH_MEASURE(1.E-07),#32,
  'distance_accuracy_value','confusion accuracy');
#36 = PRODUCT_RELATED_PRODUCT_CATEGORY('part',$,(#7));
#37 = SHAPE_DEFINITION_REPRESENTATION(#38,#44);
#38 = PRODUCT_DEFINITION_SHAPE('','',#39);
#39 = PRODUCT_DEFINITION('design','',#40,#43);
#40 = PRODUCT_DEFINITION_FORMATION('','',#41);
#41 = PRODUCT('Body002','Body002','',(#42));
#42 = PRODUCT_CONTEXT('',#2,'mechanical');
#43 = PRODUCT_DEFINITION_CONTEXT('part definition',#2,'design');
#44 = ADVANCED_BREP_SHAPE_REPRESENTATION('',(#11,#45),#195);
#45 = MANIFOLD_SOLID_BREP('',#46);
#46 = CLOSED_SHELL('',(#47,#87,#118,#142,#166,#183));
#47 = ADVANCED_FACE('',(#48),#82,.T.);
#48 = FACE_BOUND('',#49,.T.);
#49 = EDGE_LOOP('',(#50,#60,#68,#76));
#50 = ORIENTED_EDGE('',*,*,#51,.F.);
#51 = EDGE_CURVE('',#52,#54,#56,.T.);
#52 = VERTEX_POINT('',#53);
#53 = CARTESIAN_POINT('',(4.8,1.2,-3.35));
#54 = VERTEX_POINT('',#55);
#55 = CARTESIAN_POINT('',(-4.8,1.2,-3.35));
#56 = LINE('',#57,#58);
#57 = CARTESIAN_POINT('',(4.8,1.2,-3.35));
#58 = VECTOR('',#59,1.);
#59 = DIRECTION('',(-1.,0.,0.));
#60 = ORIENTED_EDGE('',*,*,#61,.T.);
#61 = EDGE_CURVE('',#52,#62,#64,.T.);
#62 = VERTEX_POINT('',#63);
#63 = CARTESIAN_POINT('',(4.8,1.15,-3.35));
#64 = LINE('',#65,#66);
#65 = CARTESIAN_POINT('',(4.8,1.2,-3.35));
#66 = VECTOR('',#67,1.);
#67 = DIRECTION('',(0.,-1.,2.2E-16));
#68 = ORIENTED_EDGE('',*,*,#69,.F.);
#69 = EDGE_CURVE('',#70,#62,#72,.T.);
#70 = VERTEX_POINT('',#71);
#71 = CARTESIAN_POINT('',(-4.8,1.15,-3.35));
#72 = LINE('',#73,#74);
#73 = CARTESIAN_POINT('',(5.275,1.15,-3.35));
#74 = VECTOR('',#75,1.);
#75 = DIRECTION('',(1.,0.,0.));
#76 = ORIENTED_EDGE('',*,*,#77,.F.);
#77 = EDGE_CURVE('',#54,#70,#78,.T.);
#78 = LINE('',#79,#80);
#79 = CARTESIAN_POINT('',(-4.8,1.2,-3.35));
#80 = VECTOR('',#81,1.);
#81 = DIRECTION('',(0.,-1.,2.2E-16));
#82 = PLANE('',#83);
#83 = AXIS2_PLACEMENT_3D('',#84,#85,#86);
#84 = CARTESIAN_POINT('',(4.8,1.2,-3.35));
#85 = DIRECTION('',(-0.,-2.2E-16,-1.));
#86 = DIRECTION('',(-1.,0.,0.));
#87 = ADVANCED_FACE('',(#88),#113,.T.);
#88 = FACE_BOUND('',#89,.T.);
#89 = EDGE_LOOP('',(#90,#91,#99,#107));
#90 = ORIENTED_EDGE('',*,*,#51,.T.);
#91 = ORIENTED_EDGE('',*,*,#92,.T.);
#92 = EDGE_CURVE('',#54,#93,#95,.T.);
#93 = VERTEX_POINT('',#94);
#94 = CARTESIAN_POINT('',(-4.8,1.2,3.35));
#95 = LINE('',#96,#97);
#96 = CARTESIAN_POINT('',(-4.8,1.2,-3.35));
#97 = VECTOR('',#98,1.);
#98 = DIRECTION('',(0.,0.,1.));
#99 = ORIENTED_EDGE('',*,*,#100,.T.);
#100 = EDGE_CURVE('',#93,#101,#103,.T.);
#101 = VERTEX_POINT('',#102);
#102 = CARTESIAN_POINT('',(4.8,1.2,3.35));
#103 = LINE('',#104,#105);
#104 = CARTESIAN_POINT('',(-4.8,1.2,3.35));
#105 = VECTOR('',#106,1.);
#106 = DIRECTION('',(1.,0.,0.));
#107 = ORIENTED_EDGE('',*,*,#108,.T.);
#108 = EDGE_CURVE('',#101,#52,#109,.T.);
#109 = LINE('',#110,#111);
#110 = CARTESIAN_POINT('',(4.8,1.2,3.35));
#111 = VECTOR('',#112,1.);
#112 = DIRECTION('',(0.,0.,-1.));
#113 = PLANE('',#114);
#114 = AXIS2_PLACEMENT_3D('',#115,#116,#117);
#115 = CARTESIAN_POINT('',(0.,1.2,0.));
#116 = DIRECTION('',(0.,1.,0.));
#117 = DIRECTION('',(0.,0.,1.));
#118 = ADVANCED_FACE('',(#119),#137,.T.);
#119 = FACE_BOUND('',#120,.T.);
#120 = EDGE_LOOP('',(#121,#122,#123,#131));
#121 = ORIENTED_EDGE('',*,*,#92,.F.);
#122 = ORIENTED_EDGE('',*,*,#77,.T.);
#123 = ORIENTED_EDGE('',*,*,#124,.F.);
#124 = EDGE_CURVE('',#125,#70,#127,.T.);
#125 = VERTEX_POINT('',#126);
#126 = CARTESIAN_POINT('',(-4.8,1.15,3.35));
#127 = LINE('',#128,#129);
#128 = CARTESIAN_POINT('',(-4.8,1.15,0.));
#129 = VECTOR('',#130,1.);
#130 = DIRECTION('',(0.,0.,-1.));
#131 = ORIENTED_EDGE('',*,*,#132,.F.);
#132 = EDGE_CURVE('',#93,#125,#133,.T.);
#133 = LINE('',#134,#135);
#134 = CARTESIAN_POINT('',(-4.8,1.2,3.35));
#135 = VECTOR('',#136,1.);
#136 = DIRECTION('',(0.,-1.,2.2E-16));
#137 = PLANE('',#138);
#138 = AXIS2_PLACEMENT_3D('',#139,#140,#141);
#139 = CARTESIAN_POINT('',(-4.8,1.2,-3.35));
#140 = DIRECTION('',(-1.,0.,0.));
#141 = DIRECTION('',(0.,2.2E-16,1.));
#142 = ADVANCED_FACE('',(#143),#161,.F.);
#143 = FACE_BOUND('',#144,.F.);
#144 = EDGE_LOOP('',(#145,#146,#147,#155));
#145 = ORIENTED_EDGE('',*,*,#69,.F.);
#146 = ORIENTED_EDGE('',*,*,#124,.F.);
#147 = ORIENTED_EDGE('',*,*,#148,.F.);
#148 = EDGE_CURVE('',#149,#125,#151,.T.);
#149 = VERTEX_POINT('',#150);
#150 = CARTESIAN_POINT('',(4.8,1.15,3.35));
#151 = LINE('',#152,#153);
#152 = CARTESIAN_POINT('',(0.475,1.15,3.35));
#153 = VECTOR('',#154,1.);
#154 = DIRECTION('',(-1.,0.,0.));
#155 = ORIENTED_EDGE('',*,*,#156,.F.);
#156 = EDGE_CURVE('',#62,#149,#157,.T.);
#157 = LINE('',#158,#159);
#158 = CARTESIAN_POINT('',(4.8,1.15,3.35));
#159 = VECTOR('',#160,1.);
#160 = DIRECTION('',(0.,0.,1.));
#161 = PLANE('',#162);
#162 = AXIS2_PLACEMENT_3D('',#163,#164,#165);
#163 = CARTESIAN_POINT('',(5.75,1.15,3.35));
#164 = DIRECTION('',(0.,1.,0.));
#165 = DIRECTION('',(-1.,0.,0.));
#166 = ADVANCED_FACE('',(#167),#178,.T.);
#167 = FACE_BOUND('',#168,.T.);
#168 = EDGE_LOOP('',(#169,#170,#176,#177));
#169 = ORIENTED_EDGE('',*,*,#108,.F.);
#170 = ORIENTED_EDGE('',*,*,#171,.T.);
#171 = EDGE_CURVE('',#101,#149,#172,.T.);
#172 = LINE('',#173,#174);
#173 = CARTESIAN_POINT('',(4.8,1.2,3.35));
#174 = VECTOR('',#175,1.);
#175 = DIRECTION('',(0.,-1.,2.2E-16));
#176 = ORIENTED_EDGE('',*,*,#156,.F.);
#177 = ORIENTED_EDGE('',*,*,#61,.F.);
#178 = PLANE('',#179);
#179 = AXIS2_PLACEMENT_3D('',#180,#181,#182);
#180 = CARTESIAN_POINT('',(4.8,1.2,3.35));
#181 = DIRECTION('',(1.,0.,0.));
#182 = DIRECTION('',(0.,-2.2E-16,-1.));
#183 = ADVANCED_FACE('',(#184),#190,.T.);
#184 = FACE_BOUND('',#185,.T.);
#185 = EDGE_LOOP('',(#186,#187,#188,#189));
#186 = ORIENTED_EDGE('',*,*,#100,.F.);
#187 = ORIENTED_EDGE('',*,*,#132,.T.);
#188 = ORIENTED_EDGE('',*,*,#148,.F.);
#189 = ORIENTED_EDGE('',*,*,#171,.F.);
#190 = PLANE('',#191);
#191 = AXIS2_PLACEMENT_3D('',#192,#193,#194);
#192 = CARTESIAN_POINT('',(-4.8,1.2,3.35));
#193 = DIRECTION('',(0.,2.2E-16,1.));
#194 = DIRECTION('',(1.,0.,-0.));
#195 = ( GEOMETRIC_REPRESENTATION_CONTEXT(3) 
GLOBAL_UNCERTAINTY_ASSIGNED_CONTEXT((#199)) GLOBAL_UNIT_ASSIGNED_CONTEXT
((#196,#197,#198)) REPRESENTATION_CONTEXT('Context #1',
  '3D Context with UNIT and UNCERTAINTY') );
#196 = ( LENGTH_UNIT() NAMED_UNIT(*) SI_UNIT(.MILLI.,.METRE.) );
#197 = ( NAMED_UNIT(*) PLANE_ANGLE_UNIT() SI_UNIT($,.RADIAN.) );
#198 = ( NAMED_UNIT(*) SI_UNIT($,.STERADIAN.) SOLID_ANGLE_UNIT() );
#199 = UNCERTAINTY_MEASURE_WITH_UNIT(LENGTH_MEASURE(1.E-07),#196,
  'distance_accuracy_value','confusion accuracy');
#200 = CONTEXT_DEPENDENT_SHAPE_REPRESENTATION(#201,#203);
#201 = ( REPRESENTATION_RELATIONSHIP('','',#44,#10) 
REPRESENTATION_RELATIONSHIP_WITH_TRANSFORMATION(#202) 
SHAPE_REPRESENTATION_RELATIONSHIP() );
#202 = ITEM_DEFINED_TRANSFORMATION('','',#11,#15);
#203 = PRODUCT_DEFINITION_SHAPE('Placement','Placement of an item',#204
  );
#204 = NEXT_ASSEMBLY_USAGE_OCCURRENCE('4','Body002','',#5,#39,$);
#205 = PRODUCT_RELATED_PRODUCT_CATEGORY('part',$,(#41));
#206 = SHAPE_DEFINITION_REPRESENTATION(#207,#213);
#207 = PRODUCT_DEFINITION_SHAPE('','',#208);
#208 = PRODUCT_DEFINITION('design','',#209,#212);
#209 = PRODUCT_DEFINITION_FORMATION('','',#210);
#210 = PRODUCT('Body','Body','',(#211));
#211 = PRODUCT_CONTEXT('',#2,'mechanical');
#212 = PRODUCT_DEFINITION_CONTEXT('part definition',#2,'design');
#213 = ADVANCED_BREP_SHAPE_REPRESENTATION('',(#11,#214),#628);
#214 = MANIFOLD_SOLID_BREP('',#215);
#215 = CLOSED_SHELL('',(#216,#256,#287,#350,#399,#448,#465,#489,#513,
    #537,#561,#578,#599,#616));
#216 = ADVANCED_FACE('',(#217),#251,.T.);
#217 = FACE_BOUND('',#218,.T.);
#218 = EDGE_LOOP('',(#219,#229,#237,#245));
#219 = ORIENTED_EDGE('',*,*,#220,.T.);
#220 = EDGE_CURVE('',#221,#223,#225,.T.);
#221 = VERTEX_POINT('',#222);
#222 = CARTESIAN_POINT('',(-5.8,0.,-3.35));
#223 = VERTEX_POINT('',#224);
#224 = CARTESIAN_POINT('',(-5.8,0.,3.35));
#225 = LINE('',#226,#227);
#226 = CARTESIAN_POINT('',(-5.8,0.,-3.35));
#227 = VECTOR('',#228,1.);
#228 = DIRECTION('',(0.,0.,1.));
#229 = ORIENTED_EDGE('',*,*,#230,.T.);
#230 = EDGE_CURVE('',#223,#231,#233,.T.);
#231 = VERTEX_POINT('',#232);
#232 = CARTESIAN_POINT('',(-5.8,1.2,3.35));
#233 = LINE('',#234,#235);
#234 = CARTESIAN_POINT('',(-5.8,0.,3.35));
#235 = VECTOR('',#236,1.);
#236 = DIRECTION('',(0.,1.,0.));
#237 = ORIENTED_EDGE('',*,*,#238,.F.);
#238 = EDGE_CURVE('',#239,#231,#241,.T.);
#239 = VERTEX_POINT('',#240);
#240 = CARTESIAN_POINT('',(-5.8,1.2,-3.35));
#241 = LINE('',#242,#243);
#242 = CARTESIAN_POINT('',(-5.8,1.2,-3.35));
#243 = VECTOR('',#244,1.);
#244 = DIRECTION('',(0.,0.,1.));
#245 = ORIENTED_EDGE('',*,*,#246,.F.);
#246 = EDGE_CURVE('',#221,#239,#247,.T.);
#247 = LINE('',#248,#249);
#248 = CARTESIAN_POINT('',(-5.8,0.,-3.35));
#249 = VECTOR('',#250,1.);
#250 = DIRECTION('',(0.,1.,0.));
#251 = PLANE('',#252);
#252 = AXIS2_PLACEMENT_3D('',#253,#254,#255);
#253 = CARTESIAN_POINT('',(-5.8,0.,-3.35));
#254 = DIRECTION('',(-1.,0.,0.));
#255 = DIRECTION('',(0.,1.,0.));
#256 = ADVANCED_FACE('',(#257),#282,.F.);
#257 = FACE_BOUND('',#258,.F.);
#258 = EDGE_LOOP('',(#259,#260,#268,#276));
#259 = ORIENTED_EDGE('',*,*,#220,.T.);
#260 = ORIENTED_EDGE('',*,*,#261,.T.);
#261 = EDGE_CURVE('',#223,#262,#264,.T.);
#262 = VERTEX_POINT('',#263);
#263 = CARTESIAN_POINT('',(-3.3,0.,3.35));
#264 = LINE('',#265,#266);
#265 = CARTESIAN_POINT('',(-5.8,0.,3.35));
#266 = VECTOR('',#267,1.);
#267 = DIRECTION('',(1.,0.,0.));
#268 = ORIENTED_EDGE('',*,*,#269,.F.);
#269 = EDGE_CURVE('',#270,#262,#272,.T.);
#270 = VERTEX_POINT('',#271);
#271 = CARTESIAN_POINT('',(-3.3,0.,-3.35));
#272 = LINE('',#273,#274);
#273 = CARTESIAN_POINT('',(-3.3,0.,-3.35));
#274 = VECTOR('',#275,1.);
#275 = DIRECTION('',(0.,0.,1.));
#276 = ORIENTED_EDGE('',*,*,#277,.F.);
#277 = EDGE_CURVE('',#221,#270,#278,.T.);
#278 = LINE('',#279,#280);
#279 = CARTESIAN_POINT('',(-5.8,0.,-3.35));
#280 = VECTOR('',#281,1.);
#281 = DIRECTION('',(1.,0.,0.));
#282 = PLANE('',#283);
#283 = AXIS2_PLACEMENT_3D('',#284,#285,#286);
#284 = CARTESIAN_POINT('',(-5.8,0.,-3.35));
#285 = DIRECTION('',(0.,1.,0.));
#286 = DIRECTION('',(1.,0.,0.));
#287 = ADVANCED_FACE('',(#288),#345,.T.);
#288 = FACE_BOUND('',#289,.T.);
#289 = EDGE_LOOP('',(#290,#298,#299,#307,#315,#323,#331,#339));
#290 = ORIENTED_EDGE('',*,*,#291,.F.);
#291 = EDGE_CURVE('',#239,#292,#294,.T.);
#292 = VERTEX_POINT('',#293);
#293 = CARTESIAN_POINT('',(-5.250000000004,1.2,-3.35));
#294 = LINE('',#295,#296);
#295 = CARTESIAN_POINT('',(-5.8,1.2,-3.35));
#296 = VECTOR('',#297,1.);
#297 = DIRECTION('',(1.,0.,0.));
#298 = ORIENTED_EDGE('',*,*,#238,.T.);
#299 = ORIENTED_EDGE('',*,*,#300,.T.);
#300 = EDGE_CURVE('',#231,#301,#303,.T.);
#301 = VERTEX_POINT('',#302);
#302 = CARTESIAN_POINT('',(-5.250000000004,1.2,3.35));
#303 = LINE('',#304,#305);
#304 = CARTESIAN_POINT('',(-5.8,1.2,3.35));
#305 = VECTOR('',#306,1.);
#306 = DIRECTION('',(1.,0.,0.));
#307 = ORIENTED_EDGE('',*,*,#308,.F.);
#308 = EDGE_CURVE('',#309,#301,#311,.T.);
#309 = VERTEX_POINT('',#310);
#310 = CARTESIAN_POINT('',(-5.250000000004,1.2,2.900000000006));
#311 = LINE('',#312,#313);
#312 = CARTESIAN_POINT('',(-5.250000000004,1.2,2.900000000006));
#313 = VECTOR('',#314,1.);
#314 = DIRECTION('',(0.,0.,1.));
#315 = ORIENTED_EDGE('',*,*,#316,.F.);
#316 = EDGE_CURVE('',#317,#309,#319,.T.);
#317 = VERTEX_POINT('',#318);
#318 = CARTESIAN_POINT('',(-4.8,1.2,2.900000000006));
#319 = LINE('',#320,#321);
#320 = CARTESIAN_POINT('',(-4.8,1.2,2.900000000006));
#321 = VECTOR('',#322,1.);
#322 = DIRECTION('',(-1.,0.,0.));
#323 = ORIENTED_EDGE('',*,*,#324,.F.);
#324 = EDGE_CURVE('',#325,#317,#327,.T.);
#325 = VERTEX_POINT('',#326);
#326 = CARTESIAN_POINT('',(-4.800000000001,1.2,-2.899999999996));
#327 = LINE('',#328,#329);
#328 = CARTESIAN_POINT('',(-4.8,1.2,-3.35));
#329 = VECTOR('',#330,1.);
#330 = DIRECTION('',(0.,0.,1.));
#331 = ORIENTED_EDGE('',*,*,#332,.F.);
#332 = EDGE_CURVE('',#333,#325,#335,.T.);
#333 = VERTEX_POINT('',#334);
#334 = CARTESIAN_POINT('',(-5.250000000004,1.2,-2.899999999996));
#335 = LINE('',#336,#337);
#336 = CARTESIAN_POINT('',(-5.250000000004,1.2,-2.899999999996));
#337 = VECTOR('',#338,1.);
#338 = DIRECTION('',(1.,0.,0.));
#339 = ORIENTED_EDGE('',*,*,#340,.F.);
#340 = EDGE_CURVE('',#292,#333,#341,.T.);
#341 = LINE('',#342,#343);
#342 = CARTESIAN_POINT('',(-5.250000000004,1.2,-3.35));
#343 = VECTOR('',#344,1.);
#344 = DIRECTION('',(0.,0.,1.));
#345 = PLANE('',#346);
#346 = AXIS2_PLACEMENT_3D('',#347,#348,#349);
#347 = CARTESIAN_POINT('',(-5.8,1.2,-3.35));
#348 = DIRECTION('',(0.,1.,0.));
#349 = DIRECTION('',(1.,0.,0.));
#350 = ADVANCED_FACE('',(#351),#394,.F.);
#351 = FACE_BOUND('',#352,.F.);
#352 = EDGE_LOOP('',(#353,#354,#355,#363,#371,#379,#387,#393));
#353 = ORIENTED_EDGE('',*,*,#246,.F.);
#354 = ORIENTED_EDGE('',*,*,#277,.T.);
#355 = ORIENTED_EDGE('',*,*,#356,.T.);
#356 = EDGE_CURVE('',#270,#357,#359,.T.);
#357 = VERTEX_POINT('',#358);
#358 = CARTESIAN_POINT('',(-3.3,5.E-02,-3.35));
#359 = LINE('',#360,#361);
#360 = CARTESIAN_POINT('',(-3.3,0.,-3.35));
#361 = VECTOR('',#362,1.);
#362 = DIRECTION('',(0.,1.,0.));
#363 = ORIENTED_EDGE('',*,*,#364,.T.);
#364 = EDGE_CURVE('',#357,#365,#367,.T.);
#365 = VERTEX_POINT('',#366);
#366 = CARTESIAN_POINT('',(-5.75,5.E-02,-3.35));
#367 = LINE('',#368,#369);
#368 = CARTESIAN_POINT('',(-3.3,5.E-02,-3.35));
#369 = VECTOR('',#370,1.);
#370 = DIRECTION('',(-1.,0.,0.));
#371 = ORIENTED_EDGE('',*,*,#372,.T.);
#372 = EDGE_CURVE('',#365,#373,#375,.T.);
#373 = VERTEX_POINT('',#374);
#374 = CARTESIAN_POINT('',(-5.75,1.15,-3.35));
#375 = LINE('',#376,#377);
#376 = CARTESIAN_POINT('',(-5.75,5.E-02,-3.35));
#377 = VECTOR('',#378,1.);
#378 = DIRECTION('',(0.,1.,0.));
#379 = ORIENTED_EDGE('',*,*,#380,.F.);
#380 = EDGE_CURVE('',#381,#373,#383,.T.);
#381 = VERTEX_POINT('',#382);
#382 = CARTESIAN_POINT('',(-5.250000000004,1.15,-3.35));
#383 = LINE('',#384,#385);
#384 = CARTESIAN_POINT('',(-4.8,1.15,-3.35));
#385 = VECTOR('',#386,1.);
#386 = DIRECTION('',(-1.,0.,0.));
#387 = ORIENTED_EDGE('',*,*,#388,.F.);
#388 = EDGE_CURVE('',#292,#381,#389,.T.);
#389 = LINE('',#390,#391);
#390 = CARTESIAN_POINT('',(-5.250000000004,1.2,-3.35));
#391 = VECTOR('',#392,1.);
#392 = DIRECTION('',(0.,-1.,2.2E-16));
#393 = ORIENTED_EDGE('',*,*,#291,.F.);
#394 = PLANE('',#395);
#395 = AXIS2_PLACEMENT_3D('',#396,#397,#398);
#396 = CARTESIAN_POINT('',(-4.995967741935,0.414516129032,-3.35));
#397 = DIRECTION('',(0.,0.,1.));
#398 = DIRECTION('',(1.,0.,0.));
#399 = ADVANCED_FACE('',(#400),#443,.T.);
#400 = FACE_BOUND('',#401,.T.);
#401 = EDGE_LOOP('',(#402,#403,#404,#412,#420,#428,#436,#442));
#402 = ORIENTED_EDGE('',*,*,#230,.F.);
#403 = ORIENTED_EDGE('',*,*,#261,.T.);
#404 = ORIENTED_EDGE('',*,*,#405,.T.);
#405 = EDGE_CURVE('',#262,#406,#408,.T.);
#406 = VERTEX_POINT('',#407);
#407 = CARTESIAN_POINT('',(-3.3,5.E-02,3.35));
#408 = LINE('',#409,#410);
#409 = CARTESIAN_POINT('',(-3.3,0.,3.35));
#410 = VECTOR('',#411,1.);
#411 = DIRECTION('',(0.,1.,0.));
#412 = ORIENTED_EDGE('',*,*,#413,.T.);
#413 = EDGE_CURVE('',#406,#414,#416,.T.);
#414 = VERTEX_POINT('',#415);
#415 = CARTESIAN_POINT('',(-5.75,5.E-02,3.35));
#416 = LINE('',#417,#418);
#417 = CARTESIAN_POINT('',(-3.3,5.E-02,3.35));
#418 = VECTOR('',#419,1.);
#419 = DIRECTION('',(-1.,0.,0.));
#420 = ORIENTED_EDGE('',*,*,#421,.T.);
#421 = EDGE_CURVE('',#414,#422,#424,.T.);
#422 = VERTEX_POINT('',#423);
#423 = CARTESIAN_POINT('',(-5.75,1.15,3.35));
#424 = LINE('',#425,#426);
#425 = CARTESIAN_POINT('',(-5.75,5.E-02,3.35));
#426 = VECTOR('',#427,1.);
#427 = DIRECTION('',(0.,1.,0.));
#428 = ORIENTED_EDGE('',*,*,#429,.F.);
#429 = EDGE_CURVE('',#430,#422,#432,.T.);
#430 = VERTEX_POINT('',#431);
#431 = CARTESIAN_POINT('',(-5.250000000004,1.15,3.35));
#432 = LINE('',#433,#434);
#433 = CARTESIAN_POINT('',(-4.8,1.15,3.35));
#434 = VECTOR('',#435,1.);
#435 = DIRECTION('',(-1.,0.,0.));
#436 = ORIENTED_EDGE('',*,*,#437,.F.);
#437 = EDGE_CURVE('',#301,#430,#438,.T.);
#438 = LINE('',#439,#440);
#439 = CARTESIAN_POINT('',(-5.250000000004,1.2,3.35));
#440 = VECTOR('',#441,1.);
#441 = DIRECTION('',(0.,-1.,2.2E-16));
#442 = ORIENTED_EDGE('',*,*,#300,.F.);
#443 = PLANE('',#444);
#444 = AXIS2_PLACEMENT_3D('',#445,#446,#447);
#445 = CARTESIAN_POINT('',(-4.995967741935,0.414516129032,3.35));
#446 = DIRECTION('',(0.,0.,1.));
#447 = DIRECTION('',(1.,0.,0.));
#448 = ADVANCED_FACE('',(#449),#460,.F.);
#449 = FACE_BOUND('',#450,.F.);
#450 = EDGE_LOOP('',(#451,#452,#453,#459));
#451 = ORIENTED_EDGE('',*,*,#269,.T.);
#452 = ORIENTED_EDGE('',*,*,#405,.T.);
#453 = ORIENTED_EDGE('',*,*,#454,.F.);
#454 = EDGE_CURVE('',#357,#406,#455,.T.);
#455 = LINE('',#456,#457);
#456 = CARTESIAN_POINT('',(-3.3,5.E-02,-3.35));
#457 = VECTOR('',#458,1.);
#458 = DIRECTION('',(0.,0.,1.));
#459 = ORIENTED_EDGE('',*,*,#356,.F.);
#460 = PLANE('',#461);
#461 = AXIS2_PLACEMENT_3D('',#462,#463,#464);
#462 = CARTESIAN_POINT('',(-3.3,0.,-3.35));
#463 = DIRECTION('',(-1.,0.,0.));
#464 = DIRECTION('',(0.,1.,0.));
#465 = ADVANCED_FACE('',(#466),#484,.F.);
#466 = FACE_BOUND('',#467,.F.);
#467 = EDGE_LOOP('',(#468,#469,#470,#478));
#468 = ORIENTED_EDGE('',*,*,#340,.F.);
#469 = ORIENTED_EDGE('',*,*,#388,.T.);
#470 = ORIENTED_EDGE('',*,*,#471,.T.);
#471 = EDGE_CURVE('',#381,#472,#474,.T.);
#472 = VERTEX_POINT('',#473);
#473 = CARTESIAN_POINT('',(-5.250000000004,1.15,-2.899999999996));
#474 = LINE('',#475,#476);
#475 = CARTESIAN_POINT('',(-5.250000000004,1.15,-3.35));
#476 = VECTOR('',#477,1.);
#477 = DIRECTION('',(0.,0.,1.));
#478 = ORIENTED_EDGE('',*,*,#479,.F.);
#479 = EDGE_CURVE('',#333,#472,#480,.T.);
#480 = LINE('',#481,#482);
#481 = CARTESIAN_POINT('',(-5.250000000004,1.2,-2.899999999996));
#482 = VECTOR('',#483,1.);
#483 = DIRECTION('',(0.,-1.,2.2E-16));
#484 = PLANE('',#485);
#485 = AXIS2_PLACEMENT_3D('',#486,#487,#488);
#486 = CARTESIAN_POINT('',(-5.250000000004,1.2,-3.35));
#487 = DIRECTION('',(-1.,0.,0.));
#488 = DIRECTION('',(0.,2.2E-16,1.));
#489 = ADVANCED_FACE('',(#490),#508,.F.);
#490 = FACE_BOUND('',#491,.F.);
#491 = EDGE_LOOP('',(#492,#493,#494,#502));
#492 = ORIENTED_EDGE('',*,*,#332,.F.);
#493 = ORIENTED_EDGE('',*,*,#479,.T.);
#494 = ORIENTED_EDGE('',*,*,#495,.T.);
#495 = EDGE_CURVE('',#472,#496,#498,.T.);
#496 = VERTEX_POINT('',#497);
#497 = CARTESIAN_POINT('',(-4.800000000001,1.15,-2.899999999996));
#498 = LINE('',#499,#500);
#499 = CARTESIAN_POINT('',(-5.025000000002,1.15,-2.899999999996));
#500 = VECTOR('',#501,1.);
#501 = DIRECTION('',(1.,0.,0.));
#502 = ORIENTED_EDGE('',*,*,#503,.F.);
#503 = EDGE_CURVE('',#325,#496,#504,.T.);
#504 = LINE('',#505,#506);
#505 = CARTESIAN_POINT('',(-4.800000000001,1.2,-2.899999999996));
#506 = VECTOR('',#507,1.);
#507 = DIRECTION('',(0.,-1.,2.2E-16));
#508 = PLANE('',#509);
#509 = AXIS2_PLACEMENT_3D('',#510,#511,#512);
#510 = CARTESIAN_POINT('',(-5.250000000004,1.2,-2.899999999996));
#511 = DIRECTION('',(0.,2.2E-16,1.));
#512 = DIRECTION('',(1.,0.,-0.));
#513 = ADVANCED_FACE('',(#514),#532,.T.);
#514 = FACE_BOUND('',#515,.T.);
#515 = EDGE_LOOP('',(#516,#517,#518,#526));
#516 = ORIENTED_EDGE('',*,*,#503,.F.);
#517 = ORIENTED_EDGE('',*,*,#324,.T.);
#518 = ORIENTED_EDGE('',*,*,#519,.T.);
#519 = EDGE_CURVE('',#317,#520,#522,.T.);
#520 = VERTEX_POINT('',#521);
#521 = CARTESIAN_POINT('',(-4.8,1.15,2.900000000006));
#522 = LINE('',#523,#524);
#523 = CARTESIAN_POINT('',(-4.8,1.2,2.900000000006));
#524 = VECTOR('',#525,1.);
#525 = DIRECTION('',(0.,-1.,2.2E-16));
#526 = ORIENTED_EDGE('',*,*,#527,.F.);
#527 = EDGE_CURVE('',#496,#520,#528,.T.);
#528 = LINE('',#529,#530);
#529 = CARTESIAN_POINT('',(-4.8,1.15,-3.35));
#530 = VECTOR('',#531,1.);
#531 = DIRECTION('',(0.,0.,1.));
#532 = PLANE('',#533);
#533 = AXIS2_PLACEMENT_3D('',#534,#535,#536);
#534 = CARTESIAN_POINT('',(-4.8,1.2,-3.35));
#535 = DIRECTION('',(1.,0.,0.));
#536 = DIRECTION('',(0.,-1.,0.));
#537 = ADVANCED_FACE('',(#538),#556,.F.);
#538 = FACE_BOUND('',#539,.F.);
#539 = EDGE_LOOP('',(#540,#541,#542,#550));
#540 = ORIENTED_EDGE('',*,*,#316,.F.);
#541 = ORIENTED_EDGE('',*,*,#519,.T.);
#542 = ORIENTED_EDGE('',*,*,#543,.T.);
#543 = EDGE_CURVE('',#520,#544,#546,.T.);
#544 = VERTEX_POINT('',#545);
#545 = CARTESIAN_POINT('',(-5.250000000004,1.15,2.900000000006));
#546 = LINE('',#547,#548);
#547 = CARTESIAN_POINT('',(-4.8,1.15,2.900000000006));
#548 = VECTOR('',#549,1.);
#549 = DIRECTION('',(-1.,0.,0.));
#550 = ORIENTED_EDGE('',*,*,#551,.F.);
#551 = EDGE_CURVE('',#309,#544,#552,.T.);
#552 = LINE('',#553,#554);
#553 = CARTESIAN_POINT('',(-5.250000000004,1.2,2.900000000006));
#554 = VECTOR('',#555,1.);
#555 = DIRECTION('',(0.,-1.,2.2E-16));
#556 = PLANE('',#557);
#557 = AXIS2_PLACEMENT_3D('',#558,#559,#560);
#558 = CARTESIAN_POINT('',(-4.8,1.2,2.900000000006));
#559 = DIRECTION('',(-0.,-2.2E-16,-1.));
#560 = DIRECTION('',(-1.,0.,0.));
#561 = ADVANCED_FACE('',(#562),#573,.F.);
#562 = FACE_BOUND('',#563,.F.);
#563 = EDGE_LOOP('',(#564,#565,#566,#572));
#564 = ORIENTED_EDGE('',*,*,#308,.F.);
#565 = ORIENTED_EDGE('',*,*,#551,.T.);
#566 = ORIENTED_EDGE('',*,*,#567,.T.);
#567 = EDGE_CURVE('',#544,#430,#568,.T.);
#568 = LINE('',#569,#570);
#569 = CARTESIAN_POINT('',(-5.250000000004,1.15,-0.224999999997));
#570 = VECTOR('',#571,1.);
#571 = DIRECTION('',(0.,0.,1.));
#572 = ORIENTED_EDGE('',*,*,#437,.F.);
#573 = PLANE('',#574);
#574 = AXIS2_PLACEMENT_3D('',#575,#576,#577);
#575 = CARTESIAN_POINT('',(-5.250000000004,1.2,2.900000000006));
#576 = DIRECTION('',(-1.,0.,0.));
#577 = DIRECTION('',(0.,2.2E-16,1.));
#578 = ADVANCED_FACE('',(#579),#594,.T.);
#579 = FACE_BOUND('',#580,.T.);
#580 = EDGE_LOOP('',(#581,#582,#583,#584,#585,#586,#592,#593));
#581 = ORIENTED_EDGE('',*,*,#495,.T.);
#582 = ORIENTED_EDGE('',*,*,#527,.T.);
#583 = ORIENTED_EDGE('',*,*,#543,.T.);
#584 = ORIENTED_EDGE('',*,*,#567,.T.);
#585 = ORIENTED_EDGE('',*,*,#429,.T.);
#586 = ORIENTED_EDGE('',*,*,#587,.F.);
#587 = EDGE_CURVE('',#373,#422,#588,.T.);
#588 = LINE('',#589,#590);
#589 = CARTESIAN_POINT('',(-5.75,1.15,-3.35));
#590 = VECTOR('',#591,1.);
#591 = DIRECTION('',(0.,0.,1.));
#592 = ORIENTED_EDGE('',*,*,#380,.F.);
#593 = ORIENTED_EDGE('',*,*,#471,.T.);
#594 = PLANE('',#595);
#595 = AXIS2_PLACEMENT_3D('',#596,#597,#598);
#596 = CARTESIAN_POINT('',(-4.8,1.15,-3.35));
#597 = DIRECTION('',(0.,-1.,0.));
#598 = DIRECTION('',(-1.,0.,0.));
#599 = ADVANCED_FACE('',(#600),#611,.F.);
#600 = FACE_BOUND('',#601,.F.);
#601 = EDGE_LOOP('',(#602,#608,#609,#610));
#602 = ORIENTED_EDGE('',*,*,#603,.T.);
#603 = EDGE_CURVE('',#365,#414,#604,.T.);
#604 = LINE('',#605,#606);
#605 = CARTESIAN_POINT('',(-5.75,5.E-02,-3.35));
#606 = VECTOR('',#607,1.);
#607 = DIRECTION('',(0.,0.,1.));
#608 = ORIENTED_EDGE('',*,*,#421,.T.);
#609 = ORIENTED_EDGE('',*,*,#587,.F.);
#610 = ORIENTED_EDGE('',*,*,#372,.F.);
#611 = PLANE('',#612);
#612 = AXIS2_PLACEMENT_3D('',#613,#614,#615);
#613 = CARTESIAN_POINT('',(-5.75,5.E-02,-3.35));
#614 = DIRECTION('',(-1.,0.,0.));
#615 = DIRECTION('',(0.,1.,0.));
#616 = ADVANCED_FACE('',(#617),#623,.F.);
#617 = FACE_BOUND('',#618,.F.);
#618 = EDGE_LOOP('',(#619,#620,#621,#622));
#619 = ORIENTED_EDGE('',*,*,#454,.T.);
#620 = ORIENTED_EDGE('',*,*,#413,.T.);
#621 = ORIENTED_EDGE('',*,*,#603,.F.);
#622 = ORIENTED_EDGE('',*,*,#364,.F.);
#623 = PLANE('',#624);
#624 = AXIS2_PLACEMENT_3D('',#625,#626,#627);
#625 = CARTESIAN_POINT('',(-3.3,5.E-02,-3.35));
#626 = DIRECTION('',(0.,-1.,0.));
#627 = DIRECTION('',(-1.,0.,0.));
#628 = ( GEOMETRIC_REPRESENTATION_CONTEXT(3) 
GLOBAL_UNCERTAINTY_ASSIGNED_CONTEXT((#632)) GLOBAL_UNIT_ASSIGNED_CONTEXT
((#629,#630,#631)) REPRESENTATION_CONTEXT('Context #1',
  '3D Context with UNIT and UNCERTAINTY') );
#629 = ( LENGTH_UNIT() NAMED_UNIT(*) SI_UNIT(.MILLI.,.METRE.) );
#630 = ( NAMED_UNIT(*) PLANE_ANGLE_UNIT() SI_UNIT($,.RADIAN.) );
#631 = ( NAMED_UNIT(*) SI_UNIT($,.STERADIAN.) SOLID_ANGLE_UNIT() );
#632 = UNCERTAINTY_MEASURE_WITH_UNIT(LENGTH_MEASURE(1.E-07),#629,
  'distance_accuracy_value','confusion accuracy');
#633 = CONTEXT_DEPENDENT_SHAPE_REPRESENTATION(#634,#636);
#634 = ( REPRESENTATION_RELATIONSHIP('','',#213,#10) 
REPRESENTATION_RELATIONSHIP_WITH_TRANSFORMATION(#635) 
SHAPE_REPRESENTATION_RELATIONSHIP() );
#635 = ITEM_DEFINED_TRANSFORMATION('','',#11,#19);
#636 = PRODUCT_DEFINITION_SHAPE('Placement','Placement of an item',#637
  );
#637 = NEXT_ASSEMBLY_USAGE_OCCURRENCE('5','Body','',#5,#208,$);
#638 = PRODUCT_RELATED_PRODUCT_CATEGORY('part',$,(#210));
#639 = SHAPE_DEFINITION_REPRESENTATION(#640,#646);
#640 = PRODUCT_DEFINITION_SHAPE('','',#641);
#641 = PRODUCT_DEFINITION('design','',#642,#645);
#642 = PRODUCT_DEFINITION_FORMATION('','',#643);
#643 = PRODUCT('Body (Mirror #1)','Body (Mirror #1)','',(#644));
#644 = PRODUCT_CONTEXT('',#2,'mechanical');
#645 = PRODUCT_DEFINITION_CONTEXT('part definition',#2,'design');
#646 = ADVANCED_BREP_SHAPE_REPRESENTATION('',(#11,#647),#1061);
#647 = MANIFOLD_SOLID_BREP('',#648);
#648 = CLOSED_SHELL('',(#649,#689,#720,#783,#832,#881,#898,#922,#946,
    #970,#994,#1011,#1032,#1049));
#649 = ADVANCED_FACE('',(#650),#684,.T.);
#650 = FACE_BOUND('',#651,.F.);
#651 = EDGE_LOOP('',(#652,#662,#670,#678));
#652 = ORIENTED_EDGE('',*,*,#653,.T.);
#653 = EDGE_CURVE('',#654,#656,#658,.T.);
#654 = VERTEX_POINT('',#655);
#655 = CARTESIAN_POINT('',(5.8,0.,-3.35));
#656 = VERTEX_POINT('',#657);
#657 = CARTESIAN_POINT('',(5.8,0.,3.35));
#658 = LINE('',#659,#660);
#659 = CARTESIAN_POINT('',(5.8,0.,-3.35));
#660 = VECTOR('',#661,1.);
#661 = DIRECTION('',(0.,0.,1.));
#662 = ORIENTED_EDGE('',*,*,#663,.T.);
#663 = EDGE_CURVE('',#656,#664,#666,.T.);
#664 = VERTEX_POINT('',#665);
#665 = CARTESIAN_POINT('',(5.8,1.2,3.35));
#666 = LINE('',#667,#668);
#667 = CARTESIAN_POINT('',(5.8,0.,3.35));
#668 = VECTOR('',#669,1.);
#669 = DIRECTION('',(0.,1.,0.));
#670 = ORIENTED_EDGE('',*,*,#671,.F.);
#671 = EDGE_CURVE('',#672,#664,#674,.T.);
#672 = VERTEX_POINT('',#673);
#673 = CARTESIAN_POINT('',(5.8,1.2,-3.35));
#674 = LINE('',#675,#676);
#675 = CARTESIAN_POINT('',(5.8,1.2,-3.35));
#676 = VECTOR('',#677,1.);
#677 = DIRECTION('',(0.,0.,1.));
#678 = ORIENTED_EDGE('',*,*,#679,.F.);
#679 = EDGE_CURVE('',#654,#672,#680,.T.);
#680 = LINE('',#681,#682);
#681 = CARTESIAN_POINT('',(5.8,0.,-3.35));
#682 = VECTOR('',#683,1.);
#683 = DIRECTION('',(0.,1.,0.));
#684 = PLANE('',#685);
#685 = AXIS2_PLACEMENT_3D('',#686,#687,#688);
#686 = CARTESIAN_POINT('',(5.8,0.,-3.35));
#687 = DIRECTION('',(1.,0.,0.));
#688 = DIRECTION('',(0.,-1.,0.));
#689 = ADVANCED_FACE('',(#690),#715,.F.);
#690 = FACE_BOUND('',#691,.T.);
#691 = EDGE_LOOP('',(#692,#693,#701,#709));
#692 = ORIENTED_EDGE('',*,*,#653,.T.);
#693 = ORIENTED_EDGE('',*,*,#694,.T.);
#694 = EDGE_CURVE('',#656,#695,#697,.T.);
#695 = VERTEX_POINT('',#696);
#696 = CARTESIAN_POINT('',(3.3,0.,3.35));
#697 = LINE('',#698,#699);
#698 = CARTESIAN_POINT('',(5.8,0.,3.35));
#699 = VECTOR('',#700,1.);
#700 = DIRECTION('',(-1.,-0.,-0.));
#701 = ORIENTED_EDGE('',*,*,#702,.F.);
#702 = EDGE_CURVE('',#703,#695,#705,.T.);
#703 = VERTEX_POINT('',#704);
#704 = CARTESIAN_POINT('',(3.3,0.,-3.35));
#705 = LINE('',#706,#707);
#706 = CARTESIAN_POINT('',(3.3,0.,-3.35));
#707 = VECTOR('',#708,1.);
#708 = DIRECTION('',(0.,0.,1.));
#709 = ORIENTED_EDGE('',*,*,#710,.F.);
#710 = EDGE_CURVE('',#654,#703,#711,.T.);
#711 = LINE('',#712,#713);
#712 = CARTESIAN_POINT('',(5.8,0.,-3.35));
#713 = VECTOR('',#714,1.);
#714 = DIRECTION('',(-1.,-0.,-0.));
#715 = PLANE('',#716);
#716 = AXIS2_PLACEMENT_3D('',#717,#718,#719);
#717 = CARTESIAN_POINT('',(5.8,0.,-3.35));
#718 = DIRECTION('',(0.,1.,0.));
#719 = DIRECTION('',(1.,0.,0.));
#720 = ADVANCED_FACE('',(#721),#778,.T.);
#721 = FACE_BOUND('',#722,.F.);
#722 = EDGE_LOOP('',(#723,#731,#732,#740,#748,#756,#764,#772));
#723 = ORIENTED_EDGE('',*,*,#724,.F.);
#724 = EDGE_CURVE('',#672,#725,#727,.T.);
#725 = VERTEX_POINT('',#726);
#726 = CARTESIAN_POINT('',(5.250000000004,1.2,-3.35));
#727 = LINE('',#728,#729);
#728 = CARTESIAN_POINT('',(5.8,1.2,-3.35));
#729 = VECTOR('',#730,1.);
#730 = DIRECTION('',(-1.,-0.,-0.));
#731 = ORIENTED_EDGE('',*,*,#671,.T.);
#732 = ORIENTED_EDGE('',*,*,#733,.T.);
#733 = EDGE_CURVE('',#664,#734,#736,.T.);
#734 = VERTEX_POINT('',#735);
#735 = CARTESIAN_POINT('',(5.250000000004,1.2,3.35));
#736 = LINE('',#737,#738);
#737 = CARTESIAN_POINT('',(5.8,1.2,3.35));
#738 = VECTOR('',#739,1.);
#739 = DIRECTION('',(-1.,-0.,-0.));
#740 = ORIENTED_EDGE('',*,*,#741,.F.);
#741 = EDGE_CURVE('',#742,#734,#744,.T.);
#742 = VERTEX_POINT('',#743);
#743 = CARTESIAN_POINT('',(5.250000000004,1.2,2.900000000006));
#744 = LINE('',#745,#746);
#745 = CARTESIAN_POINT('',(5.250000000004,1.2,2.900000000006));
#746 = VECTOR('',#747,1.);
#747 = DIRECTION('',(0.,0.,1.));
#748 = ORIENTED_EDGE('',*,*,#749,.F.);
#749 = EDGE_CURVE('',#750,#742,#752,.T.);
#750 = VERTEX_POINT('',#751);
#751 = CARTESIAN_POINT('',(4.8,1.2,2.900000000006));
#752 = LINE('',#753,#754);
#753 = CARTESIAN_POINT('',(4.8,1.2,2.900000000006));
#754 = VECTOR('',#755,1.);
#755 = DIRECTION('',(1.,-0.,-0.));
#756 = ORIENTED_EDGE('',*,*,#757,.F.);
#757 = EDGE_CURVE('',#758,#750,#760,.T.);
#758 = VERTEX_POINT('',#759);
#759 = CARTESIAN_POINT('',(4.800000000001,1.2,-2.899999999996));
#760 = LINE('',#761,#762);
#761 = CARTESIAN_POINT('',(4.8,1.2,-3.35));
#762 = VECTOR('',#763,1.);
#763 = DIRECTION('',(0.,0.,1.));
#764 = ORIENTED_EDGE('',*,*,#765,.F.);
#765 = EDGE_CURVE('',#766,#758,#768,.T.);
#766 = VERTEX_POINT('',#767);
#767 = CARTESIAN_POINT('',(5.250000000004,1.2,-2.899999999996));
#768 = LINE('',#769,#770);
#769 = CARTESIAN_POINT('',(5.250000000004,1.2,-2.899999999996));
#770 = VECTOR('',#771,1.);
#771 = DIRECTION('',(-1.,0.,0.));
#772 = ORIENTED_EDGE('',*,*,#773,.F.);
#773 = EDGE_CURVE('',#725,#766,#774,.T.);
#774 = LINE('',#775,#776);
#775 = CARTESIAN_POINT('',(5.250000000004,1.2,-3.35));
#776 = VECTOR('',#777,1.);
#777 = DIRECTION('',(0.,0.,1.));
#778 = PLANE('',#779);
#779 = AXIS2_PLACEMENT_3D('',#780,#781,#782);
#780 = CARTESIAN_POINT('',(5.8,1.2,-3.35));
#781 = DIRECTION('',(0.,1.,0.));
#782 = DIRECTION('',(1.,0.,0.));
#783 = ADVANCED_FACE('',(#784),#827,.F.);
#784 = FACE_BOUND('',#785,.T.);
#785 = EDGE_LOOP('',(#786,#787,#788,#796,#804,#812,#820,#826));
#786 = ORIENTED_EDGE('',*,*,#679,.F.);
#787 = ORIENTED_EDGE('',*,*,#710,.T.);
#788 = ORIENTED_EDGE('',*,*,#789,.T.);
#789 = EDGE_CURVE('',#703,#790,#792,.T.);
#790 = VERTEX_POINT('',#791);
#791 = CARTESIAN_POINT('',(3.3,5.E-02,-3.35));
#792 = LINE('',#793,#794);
#793 = CARTESIAN_POINT('',(3.3,0.,-3.35));
#794 = VECTOR('',#795,1.);
#795 = DIRECTION('',(0.,1.,0.));
#796 = ORIENTED_EDGE('',*,*,#797,.T.);
#797 = EDGE_CURVE('',#790,#798,#800,.T.);
#798 = VERTEX_POINT('',#799);
#799 = CARTESIAN_POINT('',(5.75,5.E-02,-3.35));
#800 = LINE('',#801,#802);
#801 = CARTESIAN_POINT('',(3.3,5.E-02,-3.35));
#802 = VECTOR('',#803,1.);
#803 = DIRECTION('',(1.,0.,0.));
#804 = ORIENTED_EDGE('',*,*,#805,.T.);
#805 = EDGE_CURVE('',#798,#806,#808,.T.);
#806 = VERTEX_POINT('',#807);
#807 = CARTESIAN_POINT('',(5.75,1.15,-3.35));
#808 = LINE('',#809,#810);
#809 = CARTESIAN_POINT('',(5.75,5.E-02,-3.35));
#810 = VECTOR('',#811,1.);
#811 = DIRECTION('',(0.,1.,0.));
#812 = ORIENTED_EDGE('',*,*,#813,.F.);
#813 = EDGE_CURVE('',#814,#806,#816,.T.);
#814 = VERTEX_POINT('',#815);
#815 = CARTESIAN_POINT('',(5.250000000004,1.15,-3.35));
#816 = LINE('',#817,#818);
#817 = CARTESIAN_POINT('',(4.8,1.15,-3.35));
#818 = VECTOR('',#819,1.);
#819 = DIRECTION('',(1.,0.,0.));
#820 = ORIENTED_EDGE('',*,*,#821,.F.);
#821 = EDGE_CURVE('',#725,#814,#822,.T.);
#822 = LINE('',#823,#824);
#823 = CARTESIAN_POINT('',(5.250000000004,1.2,-3.35));
#824 = VECTOR('',#825,1.);
#825 = DIRECTION('',(-0.,-1.,2.2E-16));
#826 = ORIENTED_EDGE('',*,*,#724,.F.);
#827 = PLANE('',#828);
#828 = AXIS2_PLACEMENT_3D('',#829,#830,#831);
#829 = CARTESIAN_POINT('',(4.995967741935,0.414516129032,-3.35));
#830 = DIRECTION('',(0.,0.,1.));
#831 = DIRECTION('',(1.,0.,0.));
#832 = ADVANCED_FACE('',(#833),#876,.T.);
#833 = FACE_BOUND('',#834,.F.);
#834 = EDGE_LOOP('',(#835,#836,#837,#845,#853,#861,#869,#875));
#835 = ORIENTED_EDGE('',*,*,#663,.F.);
#836 = ORIENTED_EDGE('',*,*,#694,.T.);
#837 = ORIENTED_EDGE('',*,*,#838,.T.);
#838 = EDGE_CURVE('',#695,#839,#841,.T.);
#839 = VERTEX_POINT('',#840);
#840 = CARTESIAN_POINT('',(3.3,5.E-02,3.35));
#841 = LINE('',#842,#843);
#842 = CARTESIAN_POINT('',(3.3,0.,3.35));
#843 = VECTOR('',#844,1.);
#844 = DIRECTION('',(0.,1.,0.));
#845 = ORIENTED_EDGE('',*,*,#846,.T.);
#846 = EDGE_CURVE('',#839,#847,#849,.T.);
#847 = VERTEX_POINT('',#848);
#848 = CARTESIAN_POINT('',(5.75,5.E-02,3.35));
#849 = LINE('',#850,#851);
#850 = CARTESIAN_POINT('',(3.3,5.E-02,3.35));
#851 = VECTOR('',#852,1.);
#852 = DIRECTION('',(1.,0.,0.));
#853 = ORIENTED_EDGE('',*,*,#854,.T.);
#854 = EDGE_CURVE('',#847,#855,#857,.T.);
#855 = VERTEX_POINT('',#856);
#856 = CARTESIAN_POINT('',(5.75,1.15,3.35));
#857 = LINE('',#858,#859);
#858 = CARTESIAN_POINT('',(5.75,5.E-02,3.35));
#859 = VECTOR('',#860,1.);
#860 = DIRECTION('',(0.,1.,0.));
#861 = ORIENTED_EDGE('',*,*,#862,.F.);
#862 = EDGE_CURVE('',#863,#855,#865,.T.);
#863 = VERTEX_POINT('',#864);
#864 = CARTESIAN_POINT('',(5.250000000004,1.15,3.35));
#865 = LINE('',#866,#867);
#866 = CARTESIAN_POINT('',(4.8,1.15,3.35));
#867 = VECTOR('',#868,1.);
#868 = DIRECTION('',(1.,0.,0.));
#869 = ORIENTED_EDGE('',*,*,#870,.F.);
#870 = EDGE_CURVE('',#734,#863,#871,.T.);
#871 = LINE('',#872,#873);
#872 = CARTESIAN_POINT('',(5.250000000004,1.2,3.35));
#873 = VECTOR('',#874,1.);
#874 = DIRECTION('',(-0.,-1.,2.2E-16));
#875 = ORIENTED_EDGE('',*,*,#733,.F.);
#876 = PLANE('',#877);
#877 = AXIS2_PLACEMENT_3D('',#878,#879,#880);
#878 = CARTESIAN_POINT('',(4.995967741935,0.414516129032,3.35));
#879 = DIRECTION('',(0.,0.,1.));
#880 = DIRECTION('',(1.,0.,0.));
#881 = ADVANCED_FACE('',(#882),#893,.F.);
#882 = FACE_BOUND('',#883,.T.);
#883 = EDGE_LOOP('',(#884,#885,#886,#892));
#884 = ORIENTED_EDGE('',*,*,#702,.T.);
#885 = ORIENTED_EDGE('',*,*,#838,.T.);
#886 = ORIENTED_EDGE('',*,*,#887,.F.);
#887 = EDGE_CURVE('',#790,#839,#888,.T.);
#888 = LINE('',#889,#890);
#889 = CARTESIAN_POINT('',(3.3,5.E-02,-3.35));
#890 = VECTOR('',#891,1.);
#891 = DIRECTION('',(0.,0.,1.));
#892 = ORIENTED_EDGE('',*,*,#789,.F.);
#893 = PLANE('',#894);
#894 = AXIS2_PLACEMENT_3D('',#895,#896,#897);
#895 = CARTESIAN_POINT('',(3.3,0.,-3.35));
#896 = DIRECTION('',(1.,0.,0.));
#897 = DIRECTION('',(0.,-1.,0.));
#898 = ADVANCED_FACE('',(#899),#917,.F.);
#899 = FACE_BOUND('',#900,.T.);
#900 = EDGE_LOOP('',(#901,#902,#903,#911));
#901 = ORIENTED_EDGE('',*,*,#773,.F.);
#902 = ORIENTED_EDGE('',*,*,#821,.T.);
#903 = ORIENTED_EDGE('',*,*,#904,.T.);
#904 = EDGE_CURVE('',#814,#905,#907,.T.);
#905 = VERTEX_POINT('',#906);
#906 = CARTESIAN_POINT('',(5.250000000004,1.15,-2.899999999996));
#907 = LINE('',#908,#909);
#908 = CARTESIAN_POINT('',(5.250000000004,1.15,-3.35));
#909 = VECTOR('',#910,1.);
#910 = DIRECTION('',(-0.,-0.,1.));
#911 = ORIENTED_EDGE('',*,*,#912,.F.);
#912 = EDGE_CURVE('',#766,#905,#913,.T.);
#913 = LINE('',#914,#915);
#914 = CARTESIAN_POINT('',(5.250000000004,1.2,-2.899999999996));
#915 = VECTOR('',#916,1.);
#916 = DIRECTION('',(-0.,-1.,2.2E-16));
#917 = PLANE('',#918);
#918 = AXIS2_PLACEMENT_3D('',#919,#920,#921);
#919 = CARTESIAN_POINT('',(5.250000000004,1.2,-3.35));
#920 = DIRECTION('',(1.,-0.,-0.));
#921 = DIRECTION('',(-0.,-2.2E-16,-1.));
#922 = ADVANCED_FACE('',(#923),#941,.F.);
#923 = FACE_BOUND('',#924,.T.);
#924 = EDGE_LOOP('',(#925,#926,#927,#935));
#925 = ORIENTED_EDGE('',*,*,#765,.F.);
#926 = ORIENTED_EDGE('',*,*,#912,.T.);
#927 = ORIENTED_EDGE('',*,*,#928,.T.);
#928 = EDGE_CURVE('',#905,#929,#931,.T.);
#929 = VERTEX_POINT('',#930);
#930 = CARTESIAN_POINT('',(4.800000000001,1.15,-2.899999999996));
#931 = LINE('',#932,#933);
#932 = CARTESIAN_POINT('',(5.025000000002,1.15,-2.899999999996));
#933 = VECTOR('',#934,1.);
#934 = DIRECTION('',(-1.,-0.,-0.));
#935 = ORIENTED_EDGE('',*,*,#936,.F.);
#936 = EDGE_CURVE('',#758,#929,#937,.T.);
#937 = LINE('',#938,#939);
#938 = CARTESIAN_POINT('',(4.800000000001,1.2,-2.899999999996));
#939 = VECTOR('',#940,1.);
#940 = DIRECTION('',(-0.,-1.,2.2E-16));
#941 = PLANE('',#942);
#942 = AXIS2_PLACEMENT_3D('',#943,#944,#945);
#943 = CARTESIAN_POINT('',(5.250000000004,1.2,-2.899999999996));
#944 = DIRECTION('',(-0.,2.2E-16,1.));
#945 = DIRECTION('',(1.,-0.,0.));
#946 = ADVANCED_FACE('',(#947),#965,.T.);
#947 = FACE_BOUND('',#948,.F.);
#948 = EDGE_LOOP('',(#949,#950,#951,#959));
#949 = ORIENTED_EDGE('',*,*,#936,.F.);
#950 = ORIENTED_EDGE('',*,*,#757,.T.);
#951 = ORIENTED_EDGE('',*,*,#952,.T.);
#952 = EDGE_CURVE('',#750,#953,#955,.T.);
#953 = VERTEX_POINT('',#954);
#954 = CARTESIAN_POINT('',(4.8,1.15,2.900000000006));
#955 = LINE('',#956,#957);
#956 = CARTESIAN_POINT('',(4.8,1.2,2.900000000006));
#957 = VECTOR('',#958,1.);
#958 = DIRECTION('',(-0.,-1.,2.2E-16));
#959 = ORIENTED_EDGE('',*,*,#960,.F.);
#960 = EDGE_CURVE('',#929,#953,#961,.T.);
#961 = LINE('',#962,#963);
#962 = CARTESIAN_POINT('',(4.8,1.15,-3.35));
#963 = VECTOR('',#964,1.);
#964 = DIRECTION('',(0.,0.,1.));
#965 = PLANE('',#966);
#966 = AXIS2_PLACEMENT_3D('',#967,#968,#969);
#967 = CARTESIAN_POINT('',(4.8,1.2,-3.35));
#968 = DIRECTION('',(-1.,-0.,-0.));
#969 = DIRECTION('',(0.,1.,0.));
#970 = ADVANCED_FACE('',(#971),#989,.F.);
#971 = FACE_BOUND('',#972,.T.);
#972 = EDGE_LOOP('',(#973,#974,#975,#983));
#973 = ORIENTED_EDGE('',*,*,#749,.F.);
#974 = ORIENTED_EDGE('',*,*,#952,.T.);
#975 = ORIENTED_EDGE('',*,*,#976,.T.);
#976 = EDGE_CURVE('',#953,#977,#979,.T.);
#977 = VERTEX_POINT('',#978);
#978 = CARTESIAN_POINT('',(5.250000000004,1.15,2.900000000006));
#979 = LINE('',#980,#981);
#980 = CARTESIAN_POINT('',(4.8,1.15,2.900000000006));
#981 = VECTOR('',#982,1.);
#982 = DIRECTION('',(1.,-0.,-0.));
#983 = ORIENTED_EDGE('',*,*,#984,.F.);
#984 = EDGE_CURVE('',#742,#977,#985,.T.);
#985 = LINE('',#986,#987);
#986 = CARTESIAN_POINT('',(5.250000000004,1.2,2.900000000006));
#987 = VECTOR('',#988,1.);
#988 = DIRECTION('',(-0.,-1.,2.2E-16));
#989 = PLANE('',#990);
#990 = AXIS2_PLACEMENT_3D('',#991,#992,#993);
#991 = CARTESIAN_POINT('',(4.8,1.2,2.900000000006));
#992 = DIRECTION('',(0.,-2.2E-16,-1.));
#993 = DIRECTION('',(-1.,-0.,-0.));
#994 = ADVANCED_FACE('',(#995),#1006,.F.);
#995 = FACE_BOUND('',#996,.T.);
#996 = EDGE_LOOP('',(#997,#998,#999,#1005));
#997 = ORIENTED_EDGE('',*,*,#741,.F.);
#998 = ORIENTED_EDGE('',*,*,#984,.T.);
#999 = ORIENTED_EDGE('',*,*,#1000,.T.);
#1000 = EDGE_CURVE('',#977,#863,#1001,.T.);
#1001 = LINE('',#1002,#1003);
#1002 = CARTESIAN_POINT('',(5.250000000004,1.15,-0.224999999997));
#1003 = VECTOR('',#1004,1.);
#1004 = DIRECTION('',(-0.,-0.,1.));
#1005 = ORIENTED_EDGE('',*,*,#870,.F.);
#1006 = PLANE('',#1007);
#1007 = AXIS2_PLACEMENT_3D('',#1008,#1009,#1010);
#1008 = CARTESIAN_POINT('',(5.250000000004,1.2,2.900000000006));
#1009 = DIRECTION('',(1.,-0.,-0.));
#1010 = DIRECTION('',(-0.,-2.2E-16,-1.));
#1011 = ADVANCED_FACE('',(#1012),#1027,.T.);
#1012 = FACE_BOUND('',#1013,.F.);
#1013 = EDGE_LOOP('',(#1014,#1015,#1016,#1017,#1018,#1019,#1025,#1026));
#1014 = ORIENTED_EDGE('',*,*,#928,.T.);
#1015 = ORIENTED_EDGE('',*,*,#960,.T.);
#1016 = ORIENTED_EDGE('',*,*,#976,.T.);
#1017 = ORIENTED_EDGE('',*,*,#1000,.T.);
#1018 = ORIENTED_EDGE('',*,*,#862,.T.);
#1019 = ORIENTED_EDGE('',*,*,#1020,.F.);
#1020 = EDGE_CURVE('',#806,#855,#1021,.T.);
#1021 = LINE('',#1022,#1023);
#1022 = CARTESIAN_POINT('',(5.75,1.15,-3.35));
#1023 = VECTOR('',#1024,1.);
#1024 = DIRECTION('',(0.,0.,1.));
#1025 = ORIENTED_EDGE('',*,*,#813,.F.);
#1026 = ORIENTED_EDGE('',*,*,#904,.T.);
#1027 = PLANE('',#1028);
#1028 = AXIS2_PLACEMENT_3D('',#1029,#1030,#1031);
#1029 = CARTESIAN_POINT('',(4.8,1.15,-3.35));
#1030 = DIRECTION('',(-0.,-1.,-0.));
#1031 = DIRECTION('',(-1.,0.,0.));
#1032 = ADVANCED_FACE('',(#1033),#1044,.F.);
#1033 = FACE_BOUND('',#1034,.T.);
#1034 = EDGE_LOOP('',(#1035,#1041,#1042,#1043));
#1035 = ORIENTED_EDGE('',*,*,#1036,.T.);
#1036 = EDGE_CURVE('',#798,#847,#1037,.T.);
#1037 = LINE('',#1038,#1039);
#1038 = CARTESIAN_POINT('',(5.75,5.E-02,-3.35));
#1039 = VECTOR('',#1040,1.);
#1040 = DIRECTION('',(0.,0.,1.));
#1041 = ORIENTED_EDGE('',*,*,#854,.T.);
#1042 = ORIENTED_EDGE('',*,*,#1020,.F.);
#1043 = ORIENTED_EDGE('',*,*,#805,.F.);
#1044 = PLANE('',#1045);
#1045 = AXIS2_PLACEMENT_3D('',#1046,#1047,#1048);
#1046 = CARTESIAN_POINT('',(5.75,5.E-02,-3.35));
#1047 = DIRECTION('',(1.,0.,0.));
#1048 = DIRECTION('',(0.,-1.,0.));
#1049 = ADVANCED_FACE('',(#1050),#1056,.F.);
#1050 = FACE_BOUND('',#1051,.T.);
#1051 = EDGE_LOOP('',(#1052,#1053,#1054,#1055));
#1052 = ORIENTED_EDGE('',*,*,#887,.T.);
#1053 = ORIENTED_EDGE('',*,*,#846,.T.);
#1054 = ORIENTED_EDGE('',*,*,#1036,.F.);
#1055 = ORIENTED_EDGE('',*,*,#797,.F.);
#1056 = PLANE('',#1057);
#1057 = AXIS2_PLACEMENT_3D('',#1058,#1059,#1060);
#1058 = CARTESIAN_POINT('',(3.3,5.E-02,-3.35));
#1059 = DIRECTION('',(-0.,-1.,-0.));
#1060 = DIRECTION('',(-1.,0.,0.));
#1061 = ( GEOMETRIC_REPRESENTATION_CONTEXT(3) 
GLOBAL_UNCERTAINTY_ASSIGNED_CONTEXT((#1065)) 
GLOBAL_UNIT_ASSIGNED_CONTEXT((#1062,#1063,#1064)) REPRESENTATION_CONTEXT
('Context #1','3D Context with UNIT and UNCERTAINTY') );
#1062 = ( LENGTH_UNIT() NAMED_UNIT(*) SI_UNIT(.MILLI.,.METRE.) );
#1063 = ( NAMED_UNIT(*) PLANE_ANGLE_UNIT() SI_UNIT($,.RADIAN.) );
#1064 = ( NAMED_UNIT(*) SI_UNIT($,.STERADIAN.) SOLID_ANGLE_UNIT() );
#1065 = UNCERTAINTY_MEASURE_WITH_UNIT(LENGTH_MEASURE(1.E-07),#1062,
  'distance_accuracy_value','confusion accuracy');
#1066 = CONTEXT_DEPENDENT_SHAPE_REPRESENTATION(#1067,#1069);
#1067 = ( REPRESENTATION_RELATIONSHIP('','',#646,#10) 
REPRESENTATION_RELATIONSHIP_WITH_TRANSFORMATION(#1068) 
SHAPE_REPRESENTATION_RELATIONSHIP() );
#1068 = ITEM_DEFINED_TRANSFORMATION('','',#11,#23);
#1069 = PRODUCT_DEFINITION_SHAPE('Placement','Placement of an item',
  #1070);
#1070 = NEXT_ASSEMBLY_USAGE_OCCURRENCE('6','Body (Mirror #1)','',#5,#641
  ,$);
#1071 = PRODUCT_RELATED_PRODUCT_CATEGORY('part',$,(#643));
#1072 = SHAPE_DEFINITION_REPRESENTATION(#1073,#1079);
#1073 = PRODUCT_DEFINITION_SHAPE('','',#1074);
#1074 = PRODUCT_DEFINITION('design','',#1075,#1078);
#1075 = PRODUCT_DEFINITION_FORMATION('','',#1076);
#1076 = PRODUCT('Body001','Body001','',(#1077));
#1077 = PRODUCT_CONTEXT('',#2,'mechanical');
#1078 = PRODUCT_DEFINITION_CONTEXT('part definition',#2,'design');
#1079 = ADVANCED_BREP_SHAPE_REPRESENTATION('',(#11,#1080),#1230);
#1080 = MANIFOLD_SOLID_BREP('',#1081);
#1081 = CLOSED_SHELL('',(#1082,#1122,#1153,#1177,#1201,#1218));
#1082 = ADVANCED_FACE('',(#1083),#1117,.T.);
#1083 = FACE_BOUND('',#1084,.T.);
#1084 = EDGE_LOOP('',(#1085,#1095,#1103,#1111));
#1085 = ORIENTED_EDGE('',*,*,#1086,.F.);
#1086 = EDGE_CURVE('',#1087,#1089,#1091,.T.);
#1087 = VERTEX_POINT('',#1088);
#1088 = CARTESIAN_POINT('',(5.75,1.15,3.35));
#1089 = VERTEX_POINT('',#1090);
#1090 = CARTESIAN_POINT('',(-5.75,1.15,3.35));
#1091 = LINE('',#1092,#1093);
#1092 = CARTESIAN_POINT('',(5.75,1.15,3.35));
#1093 = VECTOR('',#1094,1.);
#1094 = DIRECTION('',(-1.,0.,0.));
#1095 = ORIENTED_EDGE('',*,*,#1096,.T.);
#1096 = EDGE_CURVE('',#1087,#1097,#1099,.T.);
#1097 = VERTEX_POINT('',#1098);
#1098 = CARTESIAN_POINT('',(5.75,1.15,-3.35));
#1099 = LINE('',#1100,#1101);
#1100 = CARTESIAN_POINT('',(5.75,1.15,3.35));
#1101 = VECTOR('',#1102,1.);
#1102 = DIRECTION('',(-0.,-0.,-1.));
#1103 = ORIENTED_EDGE('',*,*,#1104,.F.);
#1104 = EDGE_CURVE('',#1105,#1097,#1107,.T.);
#1105 = VERTEX_POINT('',#1106);
#1106 = CARTESIAN_POINT('',(-5.75,1.15,-3.35));
#1107 = LINE('',#1108,#1109);
#1108 = CARTESIAN_POINT('',(0.377016129032,1.15,-3.35));
#1109 = VECTOR('',#1110,1.);
#1110 = DIRECTION('',(1.,0.,0.));
#1111 = ORIENTED_EDGE('',*,*,#1112,.F.);
#1112 = EDGE_CURVE('',#1089,#1105,#1113,.T.);
#1113 = LINE('',#1114,#1115);
#1114 = CARTESIAN_POINT('',(-5.75,1.15,3.35));
#1115 = VECTOR('',#1116,1.);
#1116 = DIRECTION('',(-0.,-0.,-1.));
#1117 = PLANE('',#1118);
#1118 = AXIS2_PLACEMENT_3D('',#1119,#1120,#1121);
#1119 = CARTESIAN_POINT('',(5.75,1.15,3.35));
#1120 = DIRECTION('',(0.,1.,0.));
#1121 = DIRECTION('',(-1.,0.,0.));
#1122 = ADVANCED_FACE('',(#1123),#1148,.T.);
#1123 = FACE_BOUND('',#1124,.T.);
#1124 = EDGE_LOOP('',(#1125,#1126,#1134,#1142));
#1125 = ORIENTED_EDGE('',*,*,#1086,.T.);
#1126 = ORIENTED_EDGE('',*,*,#1127,.T.);
#1127 = EDGE_CURVE('',#1089,#1128,#1130,.T.);
#1128 = VERTEX_POINT('',#1129);
#1129 = CARTESIAN_POINT('',(-5.75,5.E-02,3.35));
#1130 = LINE('',#1131,#1132);
#1131 = CARTESIAN_POINT('',(-5.75,1.15,3.35));
#1132 = VECTOR('',#1133,1.);
#1133 = DIRECTION('',(-8.1E-16,-1.,0.));
#1134 = ORIENTED_EDGE('',*,*,#1135,.T.);
#1135 = EDGE_CURVE('',#1128,#1136,#1138,.T.);
#1136 = VERTEX_POINT('',#1137);
#1137 = CARTESIAN_POINT('',(5.75,5.E-02,3.35));
#1138 = LINE('',#1139,#1140);
#1139 = CARTESIAN_POINT('',(-5.75,5.E-02,3.35));
#1140 = VECTOR('',#1141,1.);
#1141 = DIRECTION('',(1.,0.,0.));
#1142 = ORIENTED_EDGE('',*,*,#1143,.T.);
#1143 = EDGE_CURVE('',#1136,#1087,#1144,.T.);
#1144 = LINE('',#1145,#1146);
#1145 = CARTESIAN_POINT('',(5.75,5.E-02,3.35));
#1146 = VECTOR('',#1147,1.);
#1147 = DIRECTION('',(0.,1.,0.));
#1148 = PLANE('',#1149);
#1149 = AXIS2_PLACEMENT_3D('',#1150,#1151,#1152);
#1150 = CARTESIAN_POINT('',(-1.4E-16,0.6,3.35));
#1151 = DIRECTION('',(0.,0.,1.));
#1152 = DIRECTION('',(1.,0.,0.));
#1153 = ADVANCED_FACE('',(#1154),#1172,.T.);
#1154 = FACE_BOUND('',#1155,.T.);
#1155 = EDGE_LOOP('',(#1156,#1157,#1158,#1166));
#1156 = ORIENTED_EDGE('',*,*,#1127,.F.);
#1157 = ORIENTED_EDGE('',*,*,#1112,.T.);
#1158 = ORIENTED_EDGE('',*,*,#1159,.F.);
#1159 = EDGE_CURVE('',#1160,#1105,#1162,.T.);
#1160 = VERTEX_POINT('',#1161);
#1161 = CARTESIAN_POINT('',(-5.75,5.E-02,-3.35));
#1162 = LINE('',#1163,#1164);
#1163 = CARTESIAN_POINT('',(-5.75,0.782258064516,-3.35));
#1164 = VECTOR('',#1165,1.);
#1165 = DIRECTION('',(8.1E-16,1.,0.));
#1166 = ORIENTED_EDGE('',*,*,#1167,.F.);
#1167 = EDGE_CURVE('',#1128,#1160,#1168,.T.);
#1168 = LINE('',#1169,#1170);
#1169 = CARTESIAN_POINT('',(-5.75,5.E-02,3.35));
#1170 = VECTOR('',#1171,1.);
#1171 = DIRECTION('',(-0.,-0.,-1.));
#1172 = PLANE('',#1173);
#1173 = AXIS2_PLACEMENT_3D('',#1174,#1175,#1176);
#1174 = CARTESIAN_POINT('',(-5.75,1.15,3.35));
#1175 = DIRECTION('',(-1.,8.1E-16,0.));
#1176 = DIRECTION('',(-8.1E-16,-1.,0.));
#1177 = ADVANCED_FACE('',(#1178),#1196,.F.);
#1178 = FACE_BOUND('',#1179,.F.);
#1179 = EDGE_LOOP('',(#1180,#1181,#1182,#1190));
#1180 = ORIENTED_EDGE('',*,*,#1104,.F.);
#1181 = ORIENTED_EDGE('',*,*,#1159,.F.);
#1182 = ORIENTED_EDGE('',*,*,#1183,.F.);
#1183 = EDGE_CURVE('',#1184,#1160,#1186,.T.);
#1184 = VERTEX_POINT('',#1185);
#1185 = CARTESIAN_POINT('',(5.75,5.E-02,-3.35));
#1186 = LINE('',#1187,#1188);
#1187 = CARTESIAN_POINT('',(-5.372983870968,5.E-02,-3.35));
#1188 = VECTOR('',#1189,1.);
#1189 = DIRECTION('',(-1.,0.,0.));
#1190 = ORIENTED_EDGE('',*,*,#1191,.F.);
#1191 = EDGE_CURVE('',#1097,#1184,#1192,.T.);
#1192 = LINE('',#1193,#1194);
#1193 = CARTESIAN_POINT('',(5.75,0.232258064516,-3.35));
#1194 = VECTOR('',#1195,1.);
#1195 = DIRECTION('',(0.,-1.,0.));
#1196 = PLANE('',#1197);
#1197 = AXIS2_PLACEMENT_3D('',#1198,#1199,#1200);
#1198 = CARTESIAN_POINT('',(-4.995967741935,0.414516129032,-3.35));
#1199 = DIRECTION('',(0.,0.,1.));
#1200 = DIRECTION('',(1.,0.,-0.));
#1201 = ADVANCED_FACE('',(#1202),#1213,.T.);
#1202 = FACE_BOUND('',#1203,.T.);
#1203 = EDGE_LOOP('',(#1204,#1205,#1211,#1212));
#1204 = ORIENTED_EDGE('',*,*,#1143,.F.);
#1205 = ORIENTED_EDGE('',*,*,#1206,.T.);
#1206 = EDGE_CURVE('',#1136,#1184,#1207,.T.);
#1207 = LINE('',#1208,#1209);
#1208 = CARTESIAN_POINT('',(5.75,5.E-02,3.35));
#1209 = VECTOR('',#1210,1.);
#1210 = DIRECTION('',(-0.,-0.,-1.));
#1211 = ORIENTED_EDGE('',*,*,#1191,.F.);
#1212 = ORIENTED_EDGE('',*,*,#1096,.F.);
#1213 = PLANE('',#1214);
#1214 = AXIS2_PLACEMENT_3D('',#1215,#1216,#1217);
#1215 = CARTESIAN_POINT('',(5.75,5.E-02,3.35));
#1216 = DIRECTION('',(1.,0.,0.));
#1217 = DIRECTION('',(-0.,1.,0.));
#1218 = ADVANCED_FACE('',(#1219),#1225,.T.);
#1219 = FACE_BOUND('',#1220,.T.);
#1220 = EDGE_LOOP('',(#1221,#1222,#1223,#1224));
#1221 = ORIENTED_EDGE('',*,*,#1135,.F.);
#1222 = ORIENTED_EDGE('',*,*,#1167,.T.);
#1223 = ORIENTED_EDGE('',*,*,#1183,.F.);
#1224 = ORIENTED_EDGE('',*,*,#1206,.F.);
#1225 = PLANE('',#1226);
#1226 = AXIS2_PLACEMENT_3D('',#1227,#1228,#1229);
#1227 = CARTESIAN_POINT('',(-5.75,5.E-02,3.35));
#1228 = DIRECTION('',(0.,-1.,0.));
#1229 = DIRECTION('',(1.,0.,0.));
#1230 = ( GEOMETRIC_REPRESENTATION_CONTEXT(3) 
GLOBAL_UNCERTAINTY_ASSIGNED_CONTEXT((#1234)) 
GLOBAL_UNIT_ASSIGNED_CONTEXT((#1231,#1232,#1233)) REPRESENTATION_CONTEXT
('Context #1','3D Context with UNIT and UNCERTAINTY') );
#1231 = ( LENGTH_UNIT() NAMED_UNIT(*) SI_UNIT(.MILLI.,.METRE.) );
#1232 = ( NAMED_UNIT(*) PLANE_ANGLE_UNIT() SI_UNIT($,.RADIAN.) );
#1233 = ( NAMED_UNIT(*) SI_UNIT($,.STERADIAN.) SOLID_ANGLE_UNIT() );
#1234 = UNCERTAINTY_MEASURE_WITH_UNIT(LENGTH_MEASURE(1.E-07),#1231,
  'distance_accuracy_value','confusion accuracy');
#1235 = CONTEXT_DEPENDENT_SHAPE_REPRESENTATION(#1236,#1238);
#1236 = ( REPRESENTATION_RELATIONSHIP('','',#1079,#10) 
REPRESENTATION_RELATIONSHIP_WITH_TRANSFORMATION(#1237) 
SHAPE_REPRESENTATION_RELATIONSHIP() );
#1237 = ITEM_DEFINED_TRANSFORMATION('','',#11,#27);
#1238 = PRODUCT_DEFINITION_SHAPE('Placement','Placement of an item',
  #1239);
#1239 = NEXT_ASSEMBLY_USAGE_OCCURRENCE('7','Body001','',#5,#1074,$);
#1240 = PRODUCT_RELATED_PRODUCT_CATEGORY('part',$,(#1076));
#1241 = MECHANICAL_DESIGN_GEOMETRIC_PRESENTATION_REPRESENTATION('',(
    #1242),#1061);
#1242 = STYLED_ITEM('color',(#1243),#647);
#1243 = PRESENTATION_STYLE_ASSIGNMENT((#1244,#1250));
#1244 = SURFACE_STYLE_USAGE(.BOTH.,#1245);
#1245 = SURFACE_SIDE_STYLE('',(#1246));
#1246 = SURFACE_STYLE_FILL_AREA(#1247);
#1247 = FILL_AREA_STYLE('',(#1248));
#1248 = FILL_AREA_STYLE_COLOUR('',#1249);
#1249 = COLOUR_RGB('',0.796078452645,0.823529417451,0.937254901616);
#1250 = CURVE_STYLE('',#1251,POSITIVE_LENGTH_MEASURE(0.1),#1252);
#1251 = DRAUGHTING_PRE_DEFINED_CURVE_FONT('continuous');
#1252 = COLOUR_RGB('',9.803921802644E-02,9.803921802644E-02,
  9.803921802644E-02);
#1253 = MECHANICAL_DESIGN_GEOMETRIC_PRESENTATION_REPRESENTATION('',(
    #1254),#628);
#1254 = STYLED_ITEM('color',(#1255),#214);
#1255 = PRESENTATION_STYLE_ASSIGNMENT((#1256,#1261));
#1256 = SURFACE_STYLE_USAGE(.BOTH.,#1257);
#1257 = SURFACE_SIDE_STYLE('',(#1258));
#1258 = SURFACE_STYLE_FILL_AREA(#1259);
#1259 = FILL_AREA_STYLE('',(#1260));
#1260 = FILL_AREA_STYLE_COLOUR('',#1249);
#1261 = CURVE_STYLE('',#1262,POSITIVE_LENGTH_MEASURE(0.1),#1252);
#1262 = DRAUGHTING_PRE_DEFINED_CURVE_FONT('continuous');
#1263 = MECHANICAL_DESIGN_GEOMETRIC_PRESENTATION_REPRESENTATION('',(
    #1264),#195);
#1264 = STYLED_ITEM('color',(#1265),#45);
#1265 = PRESENTATION_STYLE_ASSIGNMENT((#1266,#1272));
#1266 = SURFACE_STYLE_USAGE(.BOTH.,#1267);
#1267 = SURFACE_SIDE_STYLE('',(#1268));
#1268 = SURFACE_STYLE_FILL_AREA(#1269);
#1269 = FILL_AREA_STYLE('',(#1270));
#1270 = FILL_AREA_STYLE_COLOUR('',#1271);
#1271 = COLOUR_RGB('',0.250980406631,0.250980406631,0.250980406631);
#1272 = CURVE_STYLE('',#1273,POSITIVE_LENGTH_MEASURE(0.1),#1252);
#1273 = DRAUGHTING_PRE_DEFINED_CURVE_FONT('continuous');
#1274 = MECHANICAL_DESIGN_GEOMETRIC_PRESENTATION_REPRESENTATION('',(
    #1275),#1230);
#1275 = STYLED_ITEM('color',(#1276),#1080);
#1276 = PRESENTATION_STYLE_ASSIGNMENT((#1277,#1283));
#1277 = SURFACE_STYLE_USAGE(.BOTH.,#1278);
#1278 = SURFACE_SIDE_STYLE('',(#1279));
#1279 = SURFACE_STYLE_FILL_AREA(#1280);
#1280 = FILL_AREA_STYLE('',(#1281));
#1281 = FILL_AREA_STYLE_COLOUR('',#1282);
#1282 = DRAUGHTING_PRE_DEFINED_COLOUR('white');
#1283 = CURVE_STYLE('',#1284,POSITIVE_LENGTH_MEASURE(0.1),#1252);
#1284 = DRAUGHTING_PRE_DEFINED_CURVE_FONT('continuous');
ENDSEC;
END-ISO-10303-21;
